<?xml version="1.0" encoding="iso-8859-1"?>
<!-- Generator: Adobe Illustrator 19.0.0, SVG Export Plug-In . SVG Version: 6.00 Build 0)  -->
<svg fill="#fff" version="1.1" id="Capa_1" xmlns="http://www.w3.org/2000/svg" xmlns:xlink="http://www.w3.org/1999/xlink" x="0px" y="0px"
	 viewBox="0 0 512 512" style="enable-background:new 0 0 512 512;" xml:space="preserve">
<g>
	<g>
		<g>
			<path d="M429.234,196.665h-59.543v-87.984C369.697,48.754,318.692,0,256.003,0S142.303,48.754,142.303,108.681v87.984H82.766
				c-5.522,0-9.989,4.473-9.989,9.989V445.21C72.771,482.039,102.737,512,139.56,512h232.873c36.823,0,66.79-29.961,66.79-66.79
				V206.654C439.223,201.138,434.756,196.665,429.234,196.665z M162.287,108.681c0-48.903,42.034-88.697,93.71-88.697
				s93.71,39.788,93.71,88.697v87.984h-187.42V108.681z M419.245,445.21c0,25.81-20.995,46.805-46.805,46.805H139.56
				c-25.81,0-46.805-20.995-46.805-46.805V216.649h326.49V445.21z"/>
			<path d="M246.008,374.729v53.438c0,5.516,4.467,9.989,9.989,9.989c5.522,0,9.989-4.473,9.989-9.989v-53.438
				c25.81-4.721,45.44-27.33,45.44-54.48c0-30.569-24.861-55.436-55.436-55.436s-55.436,24.867-55.436,55.436
				C200.567,347.399,220.198,370.008,246.008,374.729z M256.003,284.804c19.544,0,35.452,15.908,35.452,35.452
				c0,19.544-15.908,35.445-35.452,35.445s-35.452-15.902-35.452-35.445C220.552,300.711,236.453,284.804,256.003,284.804z"/>
		</g>
	</g>
</g>
<g>
</g>
<g>
</g>
<g>
</g>
<g>
</g>
<g>
</g>
<g>
</g>
<g>
</g>
<g>
</g>
<g>
</g>
<g>
</g>
<g>
</g>
<g>
</g>
<g>
</g>
<g>
</g>
<g>
</g>
</svg>
