<?xml version="1.0" encoding="utf-8"?><svg xmlns="http://www.w3.org/2000/svg" xmlns:xlink="http://www.w3.org/1999/xlink"><symbol viewBox="0 0 357.324 357.324" id="001-document" xmlns="http://www.w3.org/2000/svg"><path d="M311.662 85.724c0-.4-.4-.8-.8-1.2-.4-.4-.4-.8-.8-1.2l-78-81.6c-.4-.4-1.2-1.2-2-1.2-.8-.4-1.6-.4-2.8-.4h-175.2c-4-.8-6.8 2.4-6.8 6v344.4c0 3.6 3.2 6.8 6.8 6.8h253.2c3.6 0 6.8-3.2 6.8-6.8v-262.4c0-.8 0-1.6-.4-2.4zm-78-62.4l55.2 58h-55.2v-58zm64.8 320.8h-239.6v-331.2h161.6v75.2c0 3.6 3.2 6.8 6.8 6.8h71.2v249.2z"/><path d="M85.662 101.724h81.2c3.6 0 6.8-3.2 6.8-6.8 0-3.6-3.2-6.8-6.8-6.8h-81.2c-3.6 0-6.8 3.2-6.8 6.8 0 4 2.8 6.8 6.8 6.8zm81.2 155.2h-81.2c-3.6 0-6.8 3.2-6.8 6.8 0 3.6 3.2 6.8 6.8 6.8h81.2c3.6 0 6.8-3.2 6.8-6.8s-3.2-6.8-6.8-6.8zm-88.4-104c0 4 2.8 6.8 6.8 6.8h163.6c3.6 0 6.8-3.2 6.8-6.8 0-3.6-3.2-6.8-6.8-6.8h-163.6c-3.6 0-6.8 3.2-6.8 6.8zm170.8 27.2h-163.6c-3.6 0-6.8 3.2-6.8 6.8 0 3.6 3.2 6.8 6.8 6.8h163.6c3.6 0 6.8-3.2 6.8-6.8 0-4-3.2-6.8-6.8-6.8zm-.8 33.6h-163.6c-3.6 0-6.8 3.2-6.8 6.8s3.2 6.8 6.8 6.8h163.6c3.6 0 6.8-3.2 6.8-6.8 0-3.6-2.8-6.8-6.8-6.8z"/></symbol><symbol viewBox="0 0 348.554 348.554" id="003-stats-1" xmlns="http://www.w3.org/2000/svg"><path d="M79.166 209.354h-50c-3.6 0-6.8 3.2-6.8 6.8v124c0 3.6 3.2 6.8 6.8 6.8h50c3.6 0 6.8-3.2 6.8-6.8v-124c0-4-2.8-6.8-6.8-6.8zm-6.8 124h-36.4v-110.4h36.4v110.4zm88.8-170h-50.4c-3.6 0-6.8 3.2-6.8 6.8v171.2c0 3.6 3.2 6.8 6.8 6.8h50c3.6 0 6.8-3.2 6.8-6.8v-171.2c.4-3.6-2.8-6.8-6.4-6.8zm-6.8 171.2h-36.4v-157.6h36.4v157.6zm88.4-215.2h-50.4c-3.6 0-6.8 3.2-6.8 6.8v215.6c0 3.6 3.2 6.8 6.8 6.8h50c3.6 0 6.8-3.2 6.8-6.8v-215.6c.4-4-2.8-6.8-6.4-6.8zm-6.8 215.2h-36.4v-201.6h36.4v201.6zm88.4-250.8h-50c-3.6 0-6.8 3.2-6.8 6.8v250.8c0 3.6 3.2 6.8 6.8 6.8h50c3.6 0 6.8-3.2 6.8-6.8v-250.8c0-3.6-3.2-6.8-6.8-6.8zm-6.8 250.8h-36.4v-237.2h36.4v237.2z"/><path d="M27.966 197.754l285.6-168.8-6.8 25.2c-.8 3.6 1.2 7.2 4.8 8.4.4 0 1.2.4 1.6.4 2.8 0 5.6-2 6.4-5.2l11.2-40.8c.4-.8.4-1.6 0-2.8 0-.4 0-.4-.4-.8 0-.8-.4-1.2-.8-2 0-.4-.4-.4-.8-.8l-1.2-1.2c-.4 0-.4-.4-.8-.4-.4-.4-1.2-.4-1.6-.8l-40-8c-3.6-.8-7.2 1.6-8 5.2-.8 3.6 1.6 7.2 5.2 8l22.4 4.4-284 168.4c-3.2 2-4.4 6-2.4 9.2 1.2 2 3.6 3.2 6 3.2 1.2.4 2.4 0 3.6-.8z"/></symbol><symbol viewBox="0 0 422.692 422.692" id="008-support-1" xmlns="http://www.w3.org/2000/svg"><path d="M271.786 289.626v-7.36c2.08-1.68 4.08-3.52 6-5.44a109.36 109.36 0 0 0 27.68-60.96 53.762 53.762 0 0 0 34.72-20.64c11.6-16.4 12.64-40 2.96-69.6a8.002 8.002 0 0 0-3.2-4.16l-4.4-2.96a108.478 108.478 0 0 0-25.92-73.04c-21.52-24.24-54.56-36.48-98.32-36.64-43.68 0-76.8 12.4-98.32 36.32a108.478 108.478 0 0 0-25.92 73.04l-4.4 2.96a8.002 8.002 0 0 0-3.2 4.16c-9.68 29.76-8.64 53.2 2.96 69.6a53.918 53.918 0 0 0 34.72 20.88 109.44 109.44 0 0 0 27.76 61.04 78.037 78.037 0 0 0 6 5.44v7.36c-30.64 5.92-152.96 34.64-150.88 116.24a8 8 0 0 0 8 8h406.64a8 8 0 0 0 8-8c2.08-81.6-120.24-110.32-150.88-116.24zm-159.44-91.68a34.72 34.72 0 0 1-16.96-12.4l.4.08c-8-11.68-8.72-29.36-1.6-52.72l5.84-3.92a8 8 0 0 0 3.52-7.44 94.558 94.558 0 0 1 21.76-65.84c18.08-20.48 47.12-30.72 86-30.88 38.88-.16 67.92 10.4 86.32 30.88a94.558 94.558 0 0 1 21.76 65.84 8 8 0 0 0 3.52 7.44l5.84 3.92c7.12 23.28 6.64 41.04-1.6 52.72a34.886 34.886 0 0 1-17.04 12.4 53.277 53.277 0 0 0 13.04-40 37.441 37.441 0 0 0-12.88-22.4c-3.44-80-59.52-88.96-83.68-88.96-5.114-.015-10.222.36-15.28 1.12a100.705 100.705 0 0 0-15.28-1.12c-24 0-80 8.8-83.68 88.96a37.44 37.44 0 0 0-13.04 22.32 53.2 53.2 0 0 0 13.04 40zm182-65.6a164.805 164.805 0 0 1-95.6-24 8 8 0 0 0-10.4 1.04c-16 17.2-45.2 21.2-59.28 22.08 4.32-56.56 38.56-68.88 67.36-68.88a77.331 77.331 0 0 1 13.68 1.12 7.982 7.982 0 0 0 3.2 0 77.71 77.71 0 0 1 13.68-1.12c28.56 0 62.96 12.64 66.96 69.68l.4.08zm-162.48 67.12l.32.08a7.997 7.997 0 0 0-2-5.36c-10.96-12.56-16-24-14.64-33.44a21.2 21.2 0 0 1 7.28-13.52c10.56 0 48-2 72-22.72a180.395 180.395 0 0 0 88.8 24c5.36 0 10.8 0 16.48-.88a21.118 21.118 0 0 1 7.2 13.12c1.36 9.28-3.68 20.88-14.64 33.44a7.997 7.997 0 0 0-2 5.36v4.16l-46.56 24.96c-9.24-8.748-23.823-8.349-32.571.891-8.748 9.24-8.349 23.823.891 32.571 9.24 8.748 23.823 8.349 32.571-.891a23.039 23.039 0 0 0 6.309-15.851c.036-.72.036-1.44 0-2.16l36.72-19.68a88.007 88.007 0 0 1-21.44 42.24 71.28 71.28 0 0 1-53.04 19.84h-4a71.44 71.44 0 0 1-52.96-19.76c-25.28-25.2-24.72-66-24.72-66.4zm103.44 45.92a7.12 7.12 0 1 1-14.24 0 7.12 7.12 0 0 1 14.24 0zm-32 152H16.266c6.32-60.08 104-85.2 134.56-91.68v14.32c0 18.16 22.08 32 52.48 34.32v43.04zm-36.48-77.36v-27.6a96.721 96.721 0 0 0 42.48 8.96h4a96.721 96.721 0 0 0 42.48-8.96v27.6c0 7.6-17.36 18.56-44.48 18.56s-44.48-10.96-44.48-18.56zm52.48 77.6v-43.36c30.4-2.08 52.48-16 52.48-34.32v-14c30.8 6.4 128 31.52 134.56 91.68h-187.04z"/></symbol><symbol viewBox="0 0 647 647.498" id="009-set-square" xmlns="http://www.w3.org/2000/svg"><path d="M642.867.59a7.822 7.822 0 0 0-8.496 1.687L2.511 634.195a7.81 7.81 0 0 0-1.667 8.485 7.783 7.783 0 0 0 7.16 4.816h631.86c4.312 0 7.808-3.488 7.808-7.8V7.835A7.804 7.804 0 0 0 642.867.59zM26.863 631.887L632.055 26.695v59.766h-44.149c-4.308 0-7.808 3.488-7.808 7.8s3.5 7.81 7.808 7.81h44.149v40.964h-18.172c-4.313 0-7.805 3.492-7.805 7.805s3.492 7.808 7.805 7.808h18.172v40.903h-18.172c-4.313 0-7.805 3.5-7.805 7.808s3.492 7.801 7.805 7.801h18.172v40.973h-44.149a7.811 7.811 0 0 0-7.808 7.808c0 4.309 3.5 7.801 7.808 7.801h44.149v40.965h-18.172c-4.313 0-7.805 3.496-7.805 7.809s3.492 7.804 7.805 7.804h18.172v40.907h-18.172a7.805 7.805 0 0 0-7.805 7.808c0 4.305 3.492 7.809 7.805 7.809h18.172v40.96h-44.149a7.811 7.811 0 0 0-7.808 7.81c0 4.308 3.5 7.804 7.808 7.804h44.149v40.965h-18.172a7.807 7.807 0 0 0 0 15.613h18.172v40.965h-18.172c-4.313 0-7.805 3.496-7.805 7.809s3.492 7.808 7.805 7.808h18.172v40.961h-44.149c-4.308 0-7.808 3.496-7.808 7.809s3.5 7.808 7.808 7.808h44.149v20.793zm0 0"/><path d="M551.125 234.086a7.817 7.817 0 0 0-8.496 1.691l-305.563 305.5a7.811 7.811 0 0 0-1.93 8.774 7.826 7.826 0 0 0 7.614 4.777h305.379a7.809 7.809 0 0 0 7.809-7.808V241.27a7.82 7.82 0 0 0-4.813-7.184zm-10.8 304.875h-278.84l278.84-278.836zM103.8 438.484a63.572 63.572 0 0 0 45.278-18.734l248.176-248.238v-.438a7.554 7.554 0 0 0 1.617-1.558 7.47 7.47 0 0 0 .442-.875v-.375l34.343-113.844a7.816 7.816 0 0 0-1.953-7.836 7.812 7.812 0 0 0-7.851-1.91l-33.598 10.117-80.246 24.297c-.938.45-1.844.996-2.688 1.62L100.988 286.73l-28.101 28.106-14.36 14.426c-18.34 18.285-23.832 45.836-13.91 69.761 9.918 23.93 33.285 39.504 59.184 39.461zm2.755-135.144l34.218 34.226 34.223 34.22-17.113 17.109-68.692-68.692zM387.887 71.844a39.863 39.863 0 0 0 18.73 17.984l-18.73 61.45L327 90.202zm-75.63 25.734l28.731 28.719-194.722 194.66-28.41-28.418zM185.989 360.734l-28.73-28.722L352.04 137.289l28.723 28.73zM411.363 74.531a24.156 24.156 0 0 1-7.93-7.308l11.114-3.371zM69.578 340.312l8.805-8.8 68.695 68.691-8.805 8.8c-18.968 18.974-49.722 18.974-68.695 0-18.965-18.964-18.965-49.722 0-68.69zm0 0"/></symbol><symbol viewBox="0 0 467.6 467.6" id="010-legal-paper" xmlns="http://www.w3.org/2000/svg"><path d="M165.41 100.32h138.62a5.3 5.3 0 0 0 0-10.58H165.41a5.3 5.3 0 1 0 0 10.58zm13.94 196.14v-.04a45.38 45.38 0 0 0-32.18 13.38 45.52 45.52 0 0 0-13.325 32.195c.008 25.14 20.395 45.513 45.535 45.505 25.14-.008 45.513-20.395 45.505-45.535s-20.395-45.513-45.535-45.505zm24.672 70.233c-13.652 13.637-35.775 13.625-49.413-.027-13.637-13.652-13.625-35.775.027-49.413 13.653-13.637 35.775-13.625 49.413.027v-.04a34.818 34.818 0 0 1 10.22 24.74 34.933 34.933 0 0 1-10.247 24.713zM339.57 158.44H129.85a5.3 5.3 0 0 0 0 10.58h209.72a5.3 5.3 0 0 0 0-10.58z"/><path d="M391.01 59.66l-.16-.4-.1-.2v-.1l-.14-.18-58-58-.34-.3-.22-.12h-.14l-.24-.1h-.24a5.206 5.206 0 0 0-1.24-.26H95.61v.02C84.953.053 76.323 8.684 76.29 19.34v355.32c.033 10.656 8.664 19.287 19.32 19.32h41.5a21.174 21.174 0 0 0 5.06 5.82v62.1a5.077 5.077 0 0 0 .92 3.76l.009.011a5.28 5.28 0 0 0 7.431.729l28.34-23.26 27.86 23.12a5.241 5.241 0 0 0 3.44 1.3l.101-.001a5.14 5.14 0 0 0 5.019-5.259v-61.46a24.004 24.004 0 0 0 6.3-6.78h150.38a19.283 19.283 0 0 0 13.66-5.68 19.278 19.278 0 0 0 5.68-13.64V61.18a5.226 5.226 0 0 0-.3-1.52zm-55.94-41.48l40 40-31.28-.02a8.7 8.7 0 0 1-6.16-2.56 8.7 8.7 0 0 1-2.56-6.16V18.18zm-130.1 432.98l-22.82-18.9a5.281 5.281 0 0 0-6.7 0l-23.04 18.88v-46.72s6.68.86 10.42-1.14a21.478 21.478 0 0 0 16.44 7.72 22.659 22.659 0 0 0 16.42-7.72 21.447 21.447 0 0 0 6 1.28 19.11 19.11 0 0 0 3.28 0v46.6zm22.78-91.54a11.4 11.4 0 0 1 .96 12.4 10.82 10.82 0 0 1-10.32 5.36 5.3 5.3 0 0 0-5.72 4.82 12.823 12.823 0 0 1-1.18 6.86 10.782 10.782 0 0 1-10.32 5.78 11.435 11.435 0 0 1-3.54-.84h-3.3a4.521 4.521 0 0 0-3.24-.62h-.88l-.32.18-.18.18-.16.2-.16.22h-.36a10.82 10.82 0 0 1-5.214 5.214c-5.412 2.533-11.853.198-14.386-5.214a5.3 5.3 0 0 0-7.02-2.56 10.878 10.878 0 0 1-7.866 2.444c-5.986-.522-10.416-5.798-9.894-11.784a5.3 5.3 0 0 0-5.8-5.72 10.821 10.821 0 0 1-9.74-16.98 5.28 5.28 0 0 0-2-7.8 10.839 10.839 0 0 1-5.198-5.198c-2.547-5.418-.22-11.875 5.198-14.422a5.28 5.28 0 0 0 2-7.9 10.822 10.822 0 0 1-1.843-7.046c.521-5.953 5.77-10.356 11.723-9.834a5.3 5.3 0 0 0 5.72-5.8 10.861 10.861 0 0 1 5.42-10.3 10.84 10.84 0 0 1 11.62.52 5.28 5.28 0 0 0 7.8-2 10.7 10.7 0 0 1 9.8-6.24v-.04a10.68 10.68 0 0 1 8.54 7.1 5.3 5.3 0 0 0 7.02 2.56 11.36 11.36 0 0 1 12.4-.98 10.82 10.82 0 0 1 5.36 10.32 5.3 5.3 0 0 0 4.82 5.72 12.813 12.813 0 0 1 6.86 1.18c.416.217.818.461 1.203.731 4.895 3.428 6.085 10.174 2.657 15.069a5.28 5.28 0 0 0 1.3 7.34 12.776 12.776 0 0 1 5.36 4.46c.23.367.438.748.623 1.14 2.562 5.435.232 11.918-5.203 14.48a5.28 5.28 0 0 0-2.54 7zm154.8 15.18a8.7 8.7 0 0 1-2.56 6.16 8.721 8.721 0 0 1-6.16 2.58H232.61v-.06a21.38 21.38 0 0 0 8.1-25.1 21.333 21.333 0 0 0 2.843-2.843c7.504-9.074 6.231-22.513-2.843-30.017.459-1.245.802-2.53 1.023-3.839 1.966-11.643-5.879-22.675-17.523-24.641a21.432 21.432 0 0 0-1.006-3.751c-4.083-11.08-16.374-16.752-27.454-12.669a21.347 21.347 0 0 0-2.812-2.812c-9.074-7.521-22.527-6.262-30.048 2.812a21.318 21.318 0 0 0-18 1.54 21.259 21.259 0 0 0-10.38 14.86 21.358 21.358 0 0 0-3.761 1.012c-11.075 4.095-16.734 16.393-12.639 27.468a21.333 21.333 0 0 0-2.843 2.843c-7.504 9.074-6.231 22.513 2.843 30.017a21.4 21.4 0 0 0 8 25.12h-30.5a8.78 8.78 0 0 1-8.74-8.74V19.34a8.78 8.78 0 0 1 8.74-8.74h228.8v38.9a19.278 19.278 0 0 0 5.68 13.64 19.28 19.28 0 0 0 13.62 5.66h38.84v306z"/><path d="M339.59 276.04H232.83a5.3 5.3 0 1 0 .001 10.58h106.76a5.299 5.299 0 0 0-.001-10.58zm4.944-17.905a5.3 5.3 0 0 0-4.964-5.616H129.85a5.3 5.3 0 1 0 .001 10.58h209.72a5.297 5.297 0 0 0 4.963-4.964zM165.41 113.88a5.3 5.3 0 0 0 0 10.58h138.62a5.3 5.3 0 0 0 0-10.58H165.41zm-35.56 125.7h209.72a5.3 5.3 0 0 0 0-10.58H129.85a5.3 5.3 0 1 0 0 10.58zm0-34.1a5.3 5.3 0 0 0 0 10.58h209.72a5.3 5.3 0 0 0 0-10.58H129.85zm209.72-23.52H129.85a5.3 5.3 0 1 0-.001 10.58h209.72a5.3 5.3 0 0 0 .001-10.58z"/></symbol><symbol viewBox="0 0 387.2 387.2" id="011-bar-chart" xmlns="http://www.w3.org/2000/svg"><path d="M68.8 55.6H16c-8.8 0-16 7.2-16 16v243.2c0 8.8 7.2 16 16 16h52.8c8.8 0 16-7.2 16-16V71.6c0-8.8-7.2-16-16-16zm0 259.2H16V71.6h52.8v243.2zm100.8-224h-52.8c-8.8 0-16 6.4-16 15.2v210.4c0 8 7.2 15.2 16 15.2h52.8c8.8 0 16-6.4 16-15.2V106c0-8.8-7.2-15.2-16-15.2zm0 224h-52.8v-208h52.8v208zm100.8-192h-52.8v-.8c-8.8 0-16 6.4-16 13.6v180.8c0 8 7.2 13.6 16 13.6h52.8c8.8 0 16-6.4 16-13.6v-180c0-8-7.2-13.6-16-13.6zm0 192h-52.8V138h52.8v176.8zm100.8-165.6h-52.8c-8.8 0-16 5.6-16 12.8v155.2c0 7.2 7.2 12.8 16 12.8h52.8c8.8 0 16-5.6 16-12.8V162c0-7.2-7.2-12.8-16-12.8zm0 165.6h-52.8V165.2h52.8v149.6z"/></symbol><symbol viewBox="0 0 415.361 415.361" id="013-scroll" xmlns="http://www.w3.org/2000/svg"><path d="M415.32 342.916c-1.155-31.805-26.671-57.321-58.476-58.476v-.4h-29.84V70.2c-.044-33.472-27.168-60.596-60.64-60.64H60.684C27.149 9.58-.02 36.782 0 70.317.02 103.851 27.222 131.02 60.756 131a60.72 60.72 0 0 0 44.567-19.52v233.6c0 33.504 27.137 60.676 60.64 60.72h190.88c33.513-1.217 59.694-29.371 58.477-62.884zM266.364 25.56c24.636.044 44.596 20.004 44.64 44.64v213.84h-144.96a60.477 60.477 0 0 0-44.72 19.44V70.2a60.482 60.482 0 0 0-19.76-44.64h164.8zm-205.68 89.36c-24.698.044-44.756-19.942-44.8-44.64s19.942-44.756 44.64-44.8c24.698-.044 44.756 19.942 44.8 44.64v.08c0 24.667-19.974 44.676-44.64 44.72zm105.36 274.48c-24.698.044-44.756-19.942-44.8-44.64s19.942-44.756 44.64-44.8 44.756 19.942 44.8 44.64v.08c0 24.667-19.974 44.676-44.64 44.72zm190.88.08h-150c24.676-22.447 26.484-60.647 4.037-85.323a60.055 60.055 0 0 0-4.037-4.037h149.92a44.721 44.721 0 0 1 39.44 24h-49.2a8 8 0 0 0 0 16h54.16c.187 1.54.294 3.089.32 4.64 0 24.667-19.974 44.676-44.64 44.72z"/><path d="M250.044 62.2h-75.44a8 8 0 0 0 0 16h75.44a8 8 0 0 0 0-16zm37.76 41.28h-146.4a8 8 0 0 0 0 16h146.4a8 8 0 0 0 0-16zm0 43.36h-146.4a8 8 0 0 0 0 16h146.4a8 8 0 0 0 0-16zm0 43.68h-146.4a8 8 0 0 0 0 16h146.4a8 8 0 0 0 0-16zm0 43.68h-146.4a8 8 0 0 0 0 16h146.4a8 8 0 0 0 0-16z"/></symbol><symbol viewBox="0 0 512 512" id="014-padlock" xmlns="http://www.w3.org/2000/svg"><path d="M429.234 196.665h-59.543v-87.984C369.697 48.754 318.692 0 256.003 0s-113.7 48.754-113.7 108.681v87.984H82.766a9.986 9.986 0 0 0-9.989 9.989V445.21c-.006 36.829 29.96 66.79 66.783 66.79h232.873c36.823 0 66.79-29.961 66.79-66.79V206.654a9.986 9.986 0 0 0-9.989-9.989zm-266.947-87.984c0-48.903 42.034-88.697 93.71-88.697s93.71 39.788 93.71 88.697v87.984h-187.42v-87.984zM419.245 445.21c0 25.81-20.995 46.805-46.805 46.805H139.56c-25.81 0-46.805-20.995-46.805-46.805V216.649h326.49V445.21z"/><path d="M246.008 374.729v53.438a9.986 9.986 0 0 0 9.989 9.989 9.986 9.986 0 0 0 9.989-9.989v-53.438c25.81-4.721 45.44-27.33 45.44-54.48 0-30.569-24.861-55.436-55.436-55.436s-55.436 24.867-55.436 55.436c.013 27.15 19.644 49.759 45.454 54.48zm9.995-89.925c19.544 0 35.452 15.908 35.452 35.452 0 19.544-15.908 35.445-35.452 35.445s-35.452-15.902-35.452-35.445c.001-19.545 15.902-35.452 35.452-35.452z"/></symbol><symbol viewBox="0 0 398.4 398.4" id="016-stationary-bike" xmlns="http://www.w3.org/2000/svg"><path d="M350.4 340.8c-12.8 0-24 8.8-27.2 20.8h-52.8c38.4-18.4 64.8-48.8 64.8-84.8h35.2c4.8 0 8-3.2 8-8s-3.2-8-8-8h-36c-3.2-17.6-12.8-32.8-27.2-46.4L342.4 104h24c4.8 0 8-3.2 8-8s-3.2-8-8-8h-59.2c-4.8 0-8 3.2-8 8s3.2 8 8 8h18.4l-32 99.2c-26.4-18.4-62.4-29.6-101.6-29.6-36.8 0-69.6 9.6-95.2 25.6l76-143.2c0-.8 0-.8.8-1.6v-4c0-.8-.8-.8-.8-1.6s-.8-.8-.8-1.6-.8-.8-1.6-.8l-.8-.8c-.8 0-.8 0-1.6-.8h-1.6c-10.4 0-18.4-6.4-18.4-14.4S156.8 16 166.4 16H192c4.8 0 8-3.2 8-8s-3.2-8-8-8h-25.6C147.2 0 132 13.6 132 30.4c0 12.8 9.6 24 22.4 28L59.2 236.8v.8c-7.2 12-10.4 24.8-10.4 38.4 0 36 26.4 68 67.2 85.6H75.2c-3.2-12-14.4-20.8-27.2-20.8-16 0-28.8 12.8-28.8 28.8S32 398.4 48 398.4c12.8 0 24-8.8 27.2-20.8h248c3.2 12 14.4 20.8 27.2 20.8 16 0 28.8-12.8 28.8-28.8s-12.8-28.8-28.8-28.8zM47.2 382.4c-7.2 0-12.8-5.6-12.8-12.8 0-7.2 5.6-12.8 12.8-12.8S60 362.4 60 369.6c-.8 7.2-6.4 12.8-12.8 12.8zM64 276c0-47.2 57.6-85.6 128-85.6 40.8 0 76.8 12.8 100.8 32.8C309.6 237.6 320 256 320 276c0 47.2-57.6 85.6-128 85.6S64 323.2 64 276zm285.6 106.4c-7.2 0-12.8-5.6-12.8-12.8 0-7.2 5.6-12.8 12.8-12.8s12.8 5.6 12.8 12.8c0 7.2-5.6 12.8-12.8 12.8z"/><path d="M242.4 217.6c-25.6 0-47.2 19.2-51.2 43.2h-36.8c-4.8 0-8 3.2-8 8s3.2 8 8 8h36.8c4 24.8 24.8 43.2 51.2 43.2 28.8 0 51.2-23.2 51.2-51.2s-23.2-51.2-51.2-51.2zm0 87.2c-16.8 0-31.2-12-34.4-27.2h34.4c4.8 0 8-3.2 8-8s-3.2-8-8-8H208c4-16 17.6-27.2 34.4-27.2 20 0 35.2 16 35.2 35.2s-16 35.2-35.2 35.2z"/></symbol><symbol viewBox="0 0 487.811 487.81" id="019-runer-silhouette-running-fast" xmlns="http://www.w3.org/2000/svg"><path d="M150.463 109.521h150.512a7.16 7.16 0 0 0 7.16-7.161 7.16 7.16 0 0 0-7.16-7.161H150.463a7.16 7.16 0 1 0 0 14.322zm-134.61 70.016h150.511a7.16 7.16 0 1 0 0-14.321H15.853a7.16 7.16 0 1 0 0 14.321zm40.405 73.677a7.162 7.162 0 0 0 7.161 7.162H213.93a7.162 7.162 0 0 0 0-14.322H63.419a7.16 7.16 0 0 0-7.161 7.16zm86.138 83.226H7.161a7.16 7.16 0 1 0 0 14.321h135.235a7.16 7.16 0 1 0 0-14.321zm243.333-182.022c21.6 0 39.111-17.513 39.111-39.114s-17.512-39.113-39.111-39.113c-21.605 0-39.119 17.513-39.119 39.113-.001 21.601 17.513 39.114 39.119 39.114z"/><path d="M450.066 143.155c-22.459 31.459-52.533 35.102-84.895 15.89-2.203-1.306-11.977-6.691-14.141-7.977-52.061-30.906-104.061-18.786-138.934 30.05-14.819 20.771 19.455 40.459 34.108 19.93 18.018-25.232 40.929-32.533 65.986-24.541-12.83 22.27-24.047 44.405-39.875 75.853-15.832 31.448-50.787 56.562-84.374 36.92-24.235-14.165-46.09 20.651-21.928 34.772 45.854 26.799 99.619 10.343 127.066-24.493.952.509 1.958.968 3.062 1.354 22.422 7.812 51.814 28.61 60.77 35.981 8.953 7.371 24.336 44.921 33.471 63.788 11.082 22.893 46.871 6.219 35.748-16.771-10.355-21.406-27.736-64.129-41.293-74.938-10.875-8.669-31.988-24.803-49.895-33.956 12.115-23.466 24.729-46.679 38.008-69.491 42.328 12.969 82.561-2.308 111.215-42.446 14.831-20.768-19.435-40.456-34.099-19.925z"/></symbol><symbol viewBox="-3 0 512 512" id="020-muscle" xmlns="http://www.w3.org/2000/svg"><path d="M330.254 241c-60.57 0-114.07 30.805-145.664 77.578V215.836c0-13.879 11.289-25.168 25.164-25.168 30.422 0 55.168-24.75 55.168-55.168V55.168C264.922 24.746 240.176 0 209.754 0h-80.332c-14.23 0-28.438 5.395-40.004 15.195-11.563 9.797-19.223 22.922-21.563 36.961L.73 454.91c-2.46 14.746 1.364 29.38 10.485 40.149C20.335 505.824 34.14 512 49.09 512h401.664c30.422 0 55.168-24.746 55.168-55.168v-40.168c0-96.86-78.805-175.664-175.668-175.664zm145.668 215.832c0 13.879-11.29 25.168-25.168 25.168H49.09c-6.203 0-11.524-2.25-14.985-6.336-3.46-4.082-4.804-9.703-3.785-15.82L97.45 57.086C99.894 42.402 114.534 30 129.421 30h80.332c13.879 0 25.168 11.29 25.168 25.168v25.168H184.59V79.27c0-8.286-6.719-15-15-15-8.285 0-15 6.714-15 15v16.066c0 8.281 6.715 15 15 15h65.332V135.5c0 13.879-11.29 25.168-25.168 25.168-30.418 0-55.164 24.746-55.164 55.168v200.828c0 8.285 6.715 15 15 15 8.281 0 15-6.715 15-15C184.59 336.348 249.934 271 330.254 271s145.668 65.348 145.668 145.664zm0 0"/></symbol><symbol viewBox="0 0 58 58" id="030-like-1" xmlns="http://www.w3.org/2000/svg"><path d="M9.5 43c-2.757 0-5 2.243-5 5s2.243 5 5 5 5-2.243 5-5-2.243-5-5-5zm0 8c-1.654 0-3-1.346-3-3s1.346-3 3-3 3 1.346 3 3-1.346 3-3 3z"/><path d="M56.5 35c0-2.495-1.375-3.662-2.715-4.233A4.992 4.992 0 0 0 55.5 27c0-2.757-2.243-5-5-5H36.134l.729-3.41c.973-4.549.334-9.716.116-11.191C36.461 3.906 33.372 0 30.013 0h-.239C28.178 0 25.5.909 25.5 7c0 8.023-2.002 11.694-3.681 13.36-1.647 1.634-3.231 1.616-3.319 1.64h-1v-2h-16v38h16v-2h28c2.757 0 5-2.243 5-5a4.98 4.98 0 0 0-1.069-3.087A5.008 5.008 0 0 0 53.5 43a4.98 4.98 0 0 0-1.069-3.087A5.008 5.008 0 0 0 56.5 35zm-53 21V22h12v34h-12zm48-18h-11a1 1 0 1 0 0 2h8c1.654 0 3 1.346 3 3s-1.346 3-3 3h-10a1 1 0 1 0 0 2h7c1.654 0 3 1.346 3 3s-1.346 3-3 3h-28V24l.969-.001c.097.019 2.42.05 4.682-2.144C26.037 19.059 27.5 14.061 27.5 7c0-1.867.295-5 2.274-5h.239C32.244 2 34.621 5.13 35 7.691c.207 1.392.81 6.26-.093 10.48L33.662 24H50.5c1.654 0 3 1.346 3 3s-1.346 3-3 3h-10a1 1 0 1 0 0 2h7c.883 0 2.825.04 3.854.193C53.965 32.58 54.5 33.595 54.5 35c0 1.654-1.346 3-3 3z"/></symbol><symbol viewBox="0 0 512 512" id="033-briefing" xmlns="http://www.w3.org/2000/svg"><path d="M350.688 496.97H66.121V126.245a7.515 7.515 0 1 0-15.03 0v373.23c0 6.907 5.619 12.525 12.525 12.525h287.072a7.516 7.516 0 0 0 0-15.03zM458.782 67.951L394.906 2.276A7.515 7.515 0 0 0 389.519 0H63.616C56.71 0 51.092 5.62 51.091 12.526v58.613a7.515 7.515 0 1 0 15.03 0V15.031h320.224l59.536 61.212V496.97h-42.59a7.515 7.515 0 1 0 0 15.03h45.094c6.907 0 12.525-5.618 12.525-12.524V73.19a7.511 7.511 0 0 0-2.128-5.239z"/><path d="M458.781 67.951L394.905 2.276a7.515 7.515 0 0 0-12.901 5.24V73.19a7.515 7.515 0 0 0 7.515 7.515h63.876a7.514 7.514 0 1 0 5.386-12.754zm-61.747-2.276V26.019l38.569 39.656h-38.569zM290.78 39.899H109.714c-6.907 0-12.525 5.619-12.525 12.525v41.533c0 6.907 5.619 12.525 12.525 12.525H290.78c6.906 0 12.525-5.619 12.525-12.524V52.423c0-6.907-5.619-12.524-12.525-12.524zm-2.505 51.552H112.219V54.928h176.056v36.523zm-116.028 54.36a7.516 7.516 0 0 0-10.53 1.436l-33.203 43.688-9.972-8.726a7.515 7.515 0 0 0-9.897 11.311l16.031 14.027a7.52 7.52 0 0 0 5.707 1.822 7.517 7.517 0 0 0 5.225-2.93l38.075-50.098a7.515 7.515 0 0 0-1.436-10.53zm226.162-1.534H209.136a7.515 7.515 0 1 0 0 15.03h189.273a7.515 7.515 0 1 0 0-15.03zm-66.388 25.049H209.136a7.515 7.515 0 1 0 0 15.03h122.885a7.515 7.515 0 1 0 0-15.03zm28.055 25.05h-150.94a7.515 7.515 0 1 0 0 15.03h150.94a7.515 7.515 0 1 0 0-15.03zm-187.829 53.638a7.516 7.516 0 0 0-10.53 1.436l-33.203 43.688-9.972-8.726a7.515 7.515 0 0 0-9.897 11.311l16.031 14.027a7.52 7.52 0 0 0 5.707 1.822 7.517 7.517 0 0 0 5.225-2.93l38.075-50.098a7.516 7.516 0 0 0-1.436-10.53zm226.162-1.533H209.136a7.515 7.515 0 1 0 0 15.03h189.273a7.515 7.515 0 1 0 0-15.03zm-66.388 25.049H209.136a7.515 7.515 0 1 0 0 15.03h122.885a7.515 7.515 0 1 0 0-15.03zm28.055 25.049h-150.94a7.515 7.515 0 1 0 0 15.03h150.94a7.515 7.515 0 1 0 0-15.03zm38.333 52.106H209.136a7.515 7.515 0 1 0 0 15.03h189.273a7.516 7.516 0 0 0 0-15.03zm-66.388 25.049H209.136a7.515 7.515 0 1 0 0 15.03h122.885a7.515 7.515 0 1 0 0-15.03zm28.055 25.049h-150.94a7.515 7.515 0 1 0 0 15.03h150.94a7.515 7.515 0 1 0 0-15.03zm-201.395-50.098h-40.079c-6.907 0-12.525 5.619-12.525 12.525v40.078c0 6.907 5.619 12.525 12.525 12.525h40.079c6.907 0 12.525-5.618 12.525-12.524V361.21c0-6.907-5.619-12.525-12.525-12.525zm-2.504 50.099h-35.069v-35.069h35.069v35.069z"/></symbol><symbol viewBox="-38 0 512 512.001" id="046-shield-1" xmlns="http://www.w3.org/2000/svg"><path d="M435.488 138.918l-.015-.398a533.678 533.678 0 0 1-.461-15.91c-.418-28.231-22.86-51.583-51.094-53.16-58.867-3.286-104.406-22.481-143.316-60.407l-.332-.316c-12.692-11.637-31.836-11.637-44.532 0l-.332.316c-38.91 37.926-84.449 57.121-143.316 60.41C23.86 71.027 1.414 94.38.996 122.613a527.685 527.685 0 0 1-.46 15.907l-.024.925C-.633 199.473-2.055 274.18 22.937 341.988c13.743 37.29 34.555 69.703 61.856 96.348 31.094 30.344 71.82 54.434 121.047 71.598a37.432 37.432 0 0 0 4.96 1.351c2.391.477 4.798.715 7.204.715 2.406 0 4.816-.238 7.203-.715a37.463 37.463 0 0 0 4.98-1.36c49.168-17.195 89.852-41.296 120.918-71.636 27.29-26.652 48.102-59.074 61.856-96.371 25.086-68.012 23.668-142.86 22.527-203zm-50.715 192.605c-26.359 71.47-80.168 120.551-164.5 150.043-.3.102-.62.192-.953.258a6.751 6.751 0 0 1-2.64-.004 7.599 7.599 0 0 1-.946-.254C131.312 452.13 77.47 403.074 51.13 331.602 28.094 269.098 29.399 200.52 30.55 140.02l.008-.336c.234-5.2.39-10.645.476-16.63.188-12.534 10.172-22.906 22.73-23.605 33.313-1.86 62.579-8.297 89.47-19.68 26.855-11.367 50.706-27.39 72.91-48.984 1.128-.953 2.593-.957 3.718 0 22.207 21.594 46.059 37.617 72.91 48.985 26.891 11.382 56.157 17.82 89.473 19.68 12.559.698 22.543 11.07 22.727 23.609.09 6.015.246 11.46.48 16.625 1.149 60.57 2.422 129.203-20.68 191.84zm0 0"/><path d="M217.996 128.41c-70.36 0-127.598 57.242-127.598 127.598 0 70.36 57.239 127.601 127.598 127.601 70.356 0 127.598-57.242 127.598-127.601 0-70.356-57.242-127.598-127.598-127.598zm0 225.153c-53.793 0-97.555-43.762-97.555-97.555 0-53.793 43.762-97.555 97.555-97.555 53.79 0 97.55 43.762 97.55 97.555 0 53.793-43.76 97.555-97.55 97.555zm0 0"/><path d="M254.668 216.395l-59.266 59.265-16.086-16.086c-5.867-5.867-15.379-5.867-21.246 0-5.863 5.867-5.863 15.38 0 21.242l26.711 26.711a14.971 14.971 0 0 0 10.621 4.399c3.844 0 7.688-1.465 10.621-4.399l69.891-69.89c5.863-5.867 5.863-15.38 0-21.242-5.867-5.872-15.379-5.872-21.246 0zm0 0"/></symbol><symbol viewBox="0 0 512.003 512.003" id="agreement" xmlns="http://www.w3.org/2000/svg"><path d="M509.605 171.075l-99.3-99.301a8.177 8.177 0 0 0-11.565 0l-49.65 49.65a8.177 8.177 0 0 0 0 11.564l4.953 4.953-11.382 11.38c-7.389 7.386-18.854 9.402-28.528 5.011-9.07-4.117-19.153-6.292-29.161-6.292a70.359 70.359 0 0 0-33.814 8.633 55.047 55.047 0 0 0-13.179-1.603 54.95 54.95 0 0 0-18.829 3.31c-9.651 3.506-19.996 1.333-27.003-5.672L171.71 132.27l2.434-2.434a8.177 8.177 0 0 0 0-11.564l-49.65-49.65a8.177 8.177 0 0 0-11.565 0L2.395 179.156a8.178 8.178 0 0 0 0 11.564l49.649 49.65a8.176 8.176 0 0 0 11.566 0l2.961-2.961 14.414 14.414c3.637 3.637 6.048 8.178 6.971 13.131 4.786 25.683 17.086 49.032 35.57 67.526l2.715 2.715c-5.214 5.491-8.082 12.645-8.082 20.245 0 7.861 3.062 15.252 8.62 20.811 5.738 5.738 13.273 8.606 20.811 8.606.491 0 .98-.013 1.471-.038-.398 8.019 2.458 16.17 8.568 22.282 5.559 5.559 12.95 8.62 20.811 8.62.219 0 .437-.011.656-.016-.168 7.749 2.691 15.552 8.591 21.453 5.559 5.56 12.95 8.62 20.812 8.62 7.861 0 15.251-3.062 20.811-8.62.468-.468.909-.952 1.34-1.442a27.53 27.53 0 0 0 9.052 1.546c7.353 0 14.261-2.865 19.441-8.062a27.389 27.389 0 0 0 6.211-9.529l.837.837c5.359 5.359 12.398 8.039 19.437 8.039 7.039 0 14.078-2.68 19.437-8.039a27.373 27.373 0 0 0 6.344-9.878 27.444 27.444 0 0 0 16.158 5.236c7.039 0 14.082-2.679 19.446-8.036 5.191-5.191 8.05-12.097 8.05-19.445 0-2.22-.266-4.397-.773-6.502 5.237-1.064 10.049-3.635 13.91-7.501 5.191-5.191 8.05-12.094 8.05-19.437 0-5.785-1.782-11.292-5.073-15.91l6.56-6.56c18.699-18.708 31.052-42.35 35.725-68.371.783-4.357 2.941-8.404 6.243-11.707l24.398-24.398 4.289 4.289a8.152 8.152 0 0 0 5.783 2.395 8.154 8.154 0 0 0 5.783-2.395l49.65-49.65a8.177 8.177 0 0 0-.003-11.563zm-451.778 51.95l-38.086-38.086L118.71 85.97l38.087 38.086-98.97 98.969zm99.009 141.664c-5.097 5.096-13.392 5.098-18.493 0a12.993 12.993 0 0 1-3.83-9.247c0-3.492 1.361-6.776 3.831-9.246a13.033 13.033 0 0 1 9.245-3.824c3.348 0 6.698 1.275 9.246 3.824 5.098 5.098 5.098 13.394.001 18.493zm30.848 30.848a12.978 12.978 0 0 1-9.246 3.83 12.99 12.99 0 0 1-9.245-3.83c-5.099-5.098-5.099-13.394 0-18.493a13.033 13.033 0 0 1 9.246-3.824c3.347 0 6.697 1.275 9.245 3.824 5.1 5.098 5.1 13.395 0 18.493zm30.058 30.057a12.989 12.989 0 0 1-9.245 3.83 12.992 12.992 0 0 1-9.246-3.83c-5.099-5.098-5.099-13.394 0-18.493a13.033 13.033 0 0 1 9.246-3.824c3.347 0 6.697 1.275 9.245 3.824 5.099 5.099 5.099 13.395 0 18.493zm138.888-62.772c-2.102 2.104-4.897 3.263-7.869 3.263s-5.767-1.159-7.873-3.268l-79.33-79.312a8.178 8.178 0 0 0-11.563 11.566l85.451 85.442a11.056 11.056 0 0 1 3.26 7.872c0 2.98-1.158 5.779-3.257 7.878-4.347 4.343-11.416 4.344-15.756.003l-14.416-14.416c-.08-.083-.158-.167-.241-.249-.024-.024-.051-.045-.076-.069l-66.267-66.267a8.179 8.179 0 0 0-11.565 0 8.176 8.176 0 0 0 0 11.564l66.48 66.479a11.052 11.052 0 0 1 3.151 7.763c0 2.974-1.159 5.77-3.261 7.872-4.338 4.341-11.401 4.341-15.743 0l-72.085-72.086a8.177 8.177 0 0 0-11.565 0 8.176 8.176 0 0 0 0 11.564l53.434 53.435c.015.015.027.032.043.046a11.028 11.028 0 0 1 3.257 7.859c0 2.973-1.158 5.769-3.269 7.88a11.04 11.04 0 0 1-7.87 3.263 11.34 11.34 0 0 1-2.11-.204c1.323-8.913-1.436-18.32-8.282-25.167-5.559-5.558-12.95-8.62-20.811-8.62-.219 0-.437.011-.656.016.168-7.749-2.69-15.552-8.591-21.453-5.56-5.558-12.95-8.62-20.812-8.62-.492 0-.981.012-1.469.036.393-8.014-2.463-16.158-8.57-22.266-7.434-7.433-17.884-10.044-27.444-7.847l-5.864-5.864c-16.14-16.147-26.878-36.535-31.057-58.96-1.531-8.213-5.502-15.717-11.483-21.699l-14.415-14.415 82.01-82.01 20.438 20.438c7.856 7.856 18.552 12.06 29.507 12.06a42.87 42.87 0 0 0 14.646-2.581 38.486 38.486 0 0 1 7.144-1.832l-50.632 50.633c-6.195 6.194-9.607 14.43-9.607 23.191 0 8.76 3.412 16.996 9.606 23.19 6.394 6.394 14.79 9.59 23.19 9.589 8.398 0 16.797-3.198 23.192-9.589l25.43-25.43 6.883 6.888.005.005.286.286.275.275a.022.022 0 0 0 .005.004l.005.005.233.226 95.881 95.881a11.056 11.056 0 0 1 3.26 7.872c0 2.979-1.157 5.775-3.263 7.88zm51.507-121.988c-5.674 5.675-9.4 12.723-10.774 20.381-4.08 22.72-14.867 43.364-31.193 59.698l-6.284 6.285-51.731-51.731a45.99 45.99 0 0 0 3.39.138c5.238 0 10.598-.918 15.934-3.101a8.177 8.177 0 1 0-6.192-15.136c-21.046 8.611-46.278-15.12-49.087-17.855a5.984 5.984 0 0 0-.142-.135l-.29-.29-.003-.002-.253-.252a.022.022 0 0 0-.005-.004l-6.884-6.889 7.806-7.807a8.176 8.176 0 0 0 .001-11.565 8.178 8.178 0 0 0-11.564 0l-13.57 13.57-.016.015-.015.016-31.2 31.2c-6.412 6.411-16.842 6.409-23.252 0a16.334 16.334 0 0 1-4.815-11.626 16.33 16.33 0 0 1 4.816-11.626l53.852-53.854a54.46 54.46 0 0 1 9.905-7.837c8.503-5.256 18.324-8.034 28.401-8.034 7.693 0 15.439 1.67 22.403 4.831 15.842 7.188 34.671 3.839 46.851-8.338l11.383-11.381 66.929 66.929-24.401 24.4zm46.035-25.89l-87.736-87.736 38.087-38.086 87.736 87.736-38.087 38.086z"/><circle cx="462.41" cy="183.11" r="8.177"/><circle cx="53.567" cy="191.189" r="8.177"/></symbol><symbol viewBox="0 0 480 480" id="checklist" xmlns="http://www.w3.org/2000/svg"><path d="M440 0H104C81.92.026 64.026 17.92 64 40v376H8a8 8 0 0 0-8 8v16c.026 22.08 17.92 39.974 40 40h336c22.08-.026 39.974-17.92 40-40V251.312l49.656-49.656c9.751-9.751 9.751-25.561 0-35.312s-25.561-9.751-35.312 0L416 180.688V64h56a8 8 0 0 0 8-8V40c-.026-22.08-17.92-39.974-40-40zM40 464c-13.255 0-24-10.745-24-24v-8h320v8c.018 2.493.27 4.978.752 7.424.144.8.376 1.48.56 2.224a40.858 40.858 0 0 0 1.488 4.8c.312.8.648 1.552 1.008 2.32a40.192 40.192 0 0 0 2.304 4.24c.416.672.8 1.352 1.272 1.992.224.328.392.688.632 1H40zm360-24c0 13.255-10.745 24-24 24s-24-10.745-24-24v-16a8 8 0 0 0-8-8H80V40c0-13.255 10.745-24 24-24h304c-.24.312-.408.672-.632 1-.456.64-.856 1.32-1.272 1.992a40.192 40.192 0 0 0-2.304 4.24c-.36.8-.696 1.536-1.008 2.32a40.858 40.858 0 0 0-1.488 4.8c-.184.744-.416 1.464-.56 2.224A39.876 39.876 0 0 0 400 40v156.688L298.344 298.344a7.995 7.995 0 0 0-2.104 3.72l-8 32a8 8 0 0 0 2.104 7.592 7.847 7.847 0 0 0 2.32 1.544 8.063 8.063 0 0 0 3.288.792H296a7.995 7.995 0 0 0 1.936-.24l32-8a7.995 7.995 0 0 0 3.72-2.104L400 267.312V440zm41.656-262.344a9.184 9.184 0 0 1 12.688 0 8.984 8.984 0 0 1 0 12.688L448 196.688 435.312 184l6.344-6.344zM424 195.312L436.688 208l-112.8 112.8-16.912 4.232 4.232-16.912L424 195.312zM464 48h-48v-8c0-13.255 10.745-24 24-24s24 10.745 24 24v8z"/><path d="M152 48h176v16H152zm26.344 34.344L163.68 97.008A7.769 7.769 0 0 0 160 96h-40a8 8 0 0 0-8 8v40a8 8 0 0 0 8 8h40a8 8 0 0 0 8-8v-28.688l21.656-21.656-11.312-11.312zM152 136h-24v-24h20.688l-10.344 10.344 11.312 11.312 2.344-2.344V136zm48-40h168v16H200zm0 32h136v16H200zm-21.656 34.344l-14.664 14.664A7.769 7.769 0 0 0 160 176h-40a8 8 0 0 0-8 8v40a8 8 0 0 0 8 8h40a8 8 0 0 0 8-8v-28.688l21.656-21.656-11.312-11.312zM152 216h-24v-24h20.688l-10.344 10.344 11.312 11.312 2.344-2.344V216zm48-40h168v16H200zm0 32h136v16H200zm-21.656 34.344l-14.664 14.664A7.769 7.769 0 0 0 160 256h-40a8 8 0 0 0-8 8v40a8 8 0 0 0 8 8h40a8 8 0 0 0 8-8v-28.688l21.656-21.656-11.312-11.312zM152 296h-24v-24h20.688l-10.344 10.344 11.312 11.312 2.344-2.344V296zm48-40h104v16H200zm0 32h72v16h-72zm-21.656 34.344l-14.664 14.664A7.769 7.769 0 0 0 160 336h-40a8 8 0 0 0-8 8v40a8 8 0 0 0 8 8h40a8 8 0 0 0 8-8v-28.688l21.656-21.656-11.312-11.312zM152 376h-24v-24h20.688l-10.344 10.344 11.312 11.312 2.344-2.344V376zm48-40h72v16h-72zm0 32h136v16H200z"/></symbol><symbol viewBox="0 0 512 512" id="contract" xmlns="http://www.w3.org/2000/svg"><path d="M498.791 161.127c-17.545-17.546-46.094-17.545-63.645.004l-45.128 45.166V87.426c0-12.02-4.681-23.32-13.181-31.819L334.412 13.18C325.913 4.68 314.612 0 302.592 0H45.018c-24.813 0-45 20.187-45 45v422c0 24.813 20.187 45 45 45h300c24.813 0 45-20.187 45-45V333.631L498.79 224.767c17.587-17.586 17.591-46.052.001-63.64zM300.019 30c2.834 0 8.295-.491 13.18 4.393l42.426 42.427c4.76 4.761 4.394 9.978 4.394 13.18h-60V30zm59.999 437c0 8.271-6.728 15-15 15h-300c-8.271 0-15-6.729-15-15V45c0-8.271 6.729-15 15-15h225v75c0 8.284 6.716 15 15 15h75v116.323l-44.256 44.293-21.203 21.204a15 15 0 0 0-3.624 5.863l-21.214 63.64a14.999 14.999 0 1 0 18.974 18.974l63.64-21.213a14.988 14.988 0 0 0 5.863-3.624l1.82-1.82V467zm-33.64-154.573l21.213 21.213-8.103 8.103-31.819 10.606 10.606-31.82 8.103-8.102zm42.422-.005l-21.213-21.213 72.105-72.166 21.213 21.213-72.105 72.166zm108.773-108.864l-15.463 15.476-21.213-21.213 15.468-15.481c5.852-5.849 15.366-5.848 21.214 0 5.847 5.85 5.878 15.333-.006 21.218z"/><path d="M285.018 150h-210c-8.284 0-15 6.716-15 15s6.716 15 15 15h210c8.284 0 15-6.716 15-15s-6.716-15-15-15zm-60 60h-150c-8.284 0-15 6.716-15 15s6.716 15 15 15h150c8.284 0 15-6.716 15-15s-6.716-15-15-15zm0 60h-150c-8.284 0-15 6.716-15 15s6.716 15 15 15h150c8.284 0 15-6.716 15-15s-6.716-15-15-15zm0 60h-150c-8.284 0-15 6.716-15 15s6.716 15 15 15h150c8.284 0 15-6.716 15-15s-6.716-15-15-15zm60 92h-90c-8.284 0-15 6.716-15 15s6.716 15 15 15h90c8.284 0 15-6.716 15-15s-6.716-15-15-15z"/></symbol><symbol viewBox="0 0 367 367" id="dumbbell" xmlns="http://www.w3.org/2000/svg"><path d="M357.7 119.7c12.4-12.4 12.4-32.4 0-44.8l-7.2-7.2c10-14.4 8.4-34-4-46.8-6.8-6.8-16-10.8-26-10.8-7.6 0-14.8 2.4-20.8 6.4l-7.2-7.2c-6-6-14-9.2-22.4-9.2-8.4 0-16.4 3.2-22.4 9.2-5.6 5.6-8.4 12.8-9.2 20-5.6-2.8-11.6-4.4-18-4.4-10.8 0-20.4 4-28 11.6-7.6 7.6-11.6 17.6-11.6 28 0 10.8 4 20.4 11.6 28l22 22-99.6 99.2-22-22c-7.6-7.6-17.6-11.6-28-11.6-10.8 0-20.4 4-28 11.6-12.4 12.4-14.8 31.2-7.2 46-7.6.4-14.8 3.6-20.4 9.2-12.4 12.4-12.4 32.8 0 45.2l7.6 7.2c-4.4 6-6.4 13.2-6.4 20.8 0 9.6 4 18.8 10.8 26 7.2 7.2 16.4 10.8 26 10.8 7.2 0 14.4-2.4 20.8-6.4l7.2 7.2c6 6 14 9.2 22.4 9.2 8.4 0 16.4-3.2 22.4-9.2 5.6-5.6 8.4-12.8 9.2-20 5.6 2.8 11.6 4.4 18 4.4 10.4 0 20.4-4 28-11.6 15.6-15.6 15.6-40.8 0-56l-22-22 99.2-99.2 22 22c7.6 7.6 17.6 11.6 28 11.6 10.8 0 20.4-4 28-11.6 13.2-13.2 14.8-33.2 6-48.4h2.4c8 0 14.4-2.4 18.8-7.2zm-20.8-89.6c7.6 7.6 8.8 18.8 4 28l-31.6-31.6c8.8-5.2 20.4-4 27.6 3.6zM30.5 336.5c-7.6-7.6-8.8-18.8-4-28l31.6 31.6c-8.8 5.2-20.4 4-27.6-3.6zm80 11.6c-7.2 7.2-19.2 7.2-26.4 0l-65.2-65.2c-7.2-7.6-7.2-19.2 0-26.4 3.6-3.6 8.4-5.6 13.2-5.6 4.8 0 9.6 2 13.2 5.6l65.2 65.2c7.2 7.2 7.2 19.2 0 26.4zm55.2-64.8c10.4 10.4 10.4 27.2 0 37.6-5.2 5.2-11.6 7.6-18.8 7.6s-13.6-2.8-18.8-7.6l-82-82c-10-10.4-10-27.6 0-37.6 5.2-5.2 11.6-7.6 18.8-7.6s13.6 2.8 18.8 7.6l55.6 55.6 26.4 26.4zm-21.6-40.8l-19.6-19.6 98.8-98.8 19.6 19.6-98.8 98.8zm176.4-77.6c-5.2 5.2-11.6 7.6-18.8 7.6s-13.6-2.8-18.8-7.6l-54.8-54.8-26.4-26.8c-5.2-4.8-8-11.6-8-18.8 0-7.2 2.8-13.6 7.6-18.8 5.2-5.2 11.6-7.6 18.8-7.6s13.6 2.8 18.8 7.6l58 58 9.6 9.6 14 14c10.4 10.4 10.4 27.2 0 37.6zm-4-60.4l-8.8-8.4-50.8-51.2c-7.6-7.2-7.6-19.2 0-26.4 3.6-3.6 8.4-5.6 13.2-5.6 5.2 0 9.6 2 13.2 5.6l11.6 11.6 42.4 42.4 11.6 11.6c7.2 7.2 7.2 19.2 0 26.4-2.8 2.8-6.8 3.2-9.6 3.2-8 0-17.2-3.6-22.8-9.2z"/></symbol><symbol viewBox="0 0 512 512" id="facebook" xmlns="http://www.w3.org/2000/svg"><path d="M288 176v-64c0-17.664 14.336-32 32-32h32V0h-64c-53.024 0-96 42.976-96 96v80h-64v80h64v256h96V256h64l32-80h-96z"/></symbol><symbol viewBox="0 0 367.6 367.6" id="file" xmlns="http://www.w3.org/2000/svg"><path d="M328.6 81.6c-.4 0-.4-.4-.8-.8s-.4-.8-.8-1.2L258.2 2.4c-.4-.4-1.2-.8-1.6-1.2-.4 0-.4-.4-.8-.4-.8-.4-2-.8-3.2-.8H83.8C59 0 38.6 20.4 38.6 45.2v277.2c0 24.8 20.4 45.2 45.2 45.2h200c24.8 0 45.2-20.4 45.2-45.2v-238c0-.8-.4-2-.4-2.8zm-68.4-54.4l44.4 50h-44.4v-50zM313.8 322c0 16.8-13.2 30.4-30 30.4h-200c-16.8 0-30-13.6-30-30V44.8c0-16.8 13.6-30 30-30H245v69.6c0 4 3.2 7.6 7.6 7.6h61.2v230z"/><path d="M183.4 146.4c-26.4 0-47.6 21.6-47.6 47.6 0 26.4 21.6 47.6 47.6 47.6 26.4 0 47.6-21.6 47.6-47.6.4-26-21.2-47.6-47.6-47.6zm0 80.4c-18 0-32.8-14.8-32.8-32.8s14.8-32.8 32.8-32.8 32.8 14.8 32.8 32.8c0 18.4-14.8 32.8-32.8 32.8z"/><path d="M183.4 123.2c-39.2 0-71.2 32-71.2 71.2s32 71.2 71.2 71.2c17.2 0 32.8-6 45.2-16.4l38.4 37.6c1.6 1.6 3.2 2 5.2 2s4-.8 5.2-2.4c2.8-2.8 2.8-7.6 0-10.8l-38-37.2c9.6-12 15.2-27.2 15.2-44 0-39.2-32-71.2-71.2-71.2zm0 127.2c-30.8 0-56-25.2-56-56s25.2-56 56-56 56 25.2 56 56-24.8 56-56 56z"/></symbol><symbol viewBox="0 0 426.843 426.843" id="file-1" xmlns="http://www.w3.org/2000/svg"><path d="M293.825 152.48H91.505a8 8 0 0 0 0 16h202.32a8 8 0 0 0 0-16zm0 43.2H91.505a8 8 0 0 0 0 16h202.32a8 8 0 0 0 0-16zm0 43.12H91.505a8 8 0 0 0 0 16h202.32a8 8 0 0 0 0-16zm-58.48 43.2h-144a8 8 0 0 0 0 16h144a8 8 0 0 0 0-16zm-19.44 43.04h-124.4a8 8 0 0 0 0 16h124.4a8 8 0 0 0 0-16z"/><path d="M389.851 327.327a72.64 72.64 0 0 0-36.346-38.767V105.52a8.02 8.02 0 0 0-.4-2.08v-.72a8.016 8.016 0 0 0-1.6-2.32L253.105 2a8.016 8.016 0 0 0-2.32-1.6h-.72a8.02 8.02 0 0 0-2.08-.4H46.865c-8.183-.002-14.866 6.539-15.04 14.72v351.52c.131 8.212 6.826 14.801 15.04 14.8h208c14.833 37.275 57.074 55.469 94.35 40.636 37.275-14.832 55.469-57.074 40.636-94.349zM255.185 26.96l35.52 35.52L326.225 98h-71.04V26.96zm-4.232 309.555a72.01 72.01 0 0 0-.888 28.525H47.825V15.6h191.36v83.36c0 8.306 6.734 15.04 15.04 15.04h83.28v168.88c-38.711-9.09-77.462 14.924-86.552 53.635zm70.873 73.965h-.08v-.24c-31.281 0-56.64-25.359-56.64-56.64s25.359-56.64 56.64-56.64 56.64 25.359 56.64 56.64c.088 31.325-25.235 56.791-56.56 56.88z"/><path d="M358.465 321.76a8.015 8.015 0 0 0-11.28 1.12v-.08l-34.64 42.24-18.24-24a8 8 0 0 0-12.8 9.6l24 32.56a8.001 8.001 0 0 0 6.24 3.2 8 8 0 0 0 6.16-2.96l41.68-50.4a8.015 8.015 0 0 0-1.12-11.28z"/></symbol><symbol viewBox="0 0 512 512" id="growth" xmlns="http://www.w3.org/2000/svg"><path d="M468.102 130.023L399.648 16.566a10.002 10.002 0 0 0-17.125 0L314.07 130.023a10.009 10.009 0 0 0-.148 10.082 10.005 10.005 0 0 0 8.71 5.086h17.727v54.016h-76.605c-5.524 0-10 4.477-10 10v35H177.19c-5.523 0-10 4.477-10 10v35H90.625c-5.523 0-10 4.477-10 10v135.406c0 5.524 4.477 10 10 10h341.184c5.523 0 10-4.476 10-10V145.191h17.73a10.003 10.003 0 0 0 8.563-15.168zM100.625 309.207h66.566v115.406h-66.566zm86.566-45h66.563v160.406H187.19zm86.563-45h66.61v205.406h-66.61zm158.055-94.016c-5.52 0-10 4.477-10 10v289.422h-61.446V145.191h18.04c5.523 0 10-4.48 10-10 0-5.523-4.477-10-10-10h-38.06l50.743-84.097 50.742 84.097zm0 0"/><path d="M267.992 468.773H43.227V39.871l5.246 6.953a9.988 9.988 0 0 0 7.992 3.98 9.961 9.961 0 0 0 6.012-2.015c4.41-3.324 5.289-9.598 1.964-14.008l-23.23-30.8a10 10 0 0 0-15.969 0L2.016 34.784C-1.31 39.195-.43 45.465 3.98 48.79s10.68 2.445 14.004-1.965l5.243-6.953v428.902H11.625c-5.523 0-10 4.477-10 10 0 5.524 4.477 10 10 10h11.602v11.602c0 5.523 4.476 10 10 10 5.523 0 10-4.477 10-10v-11.602h224.765c5.52 0 10-4.476 10-10 0-5.523-4.48-10-10-10zm48.298 6.177a9.896 9.896 0 0 0-.919-1.731 9.502 9.502 0 0 0-1.242-1.52 9.31 9.31 0 0 0-1.52-1.238 9.526 9.526 0 0 0-1.73-.922 9.922 9.922 0 0 0-5.777-.57 10.42 10.42 0 0 0-1.872.57 9.82 9.82 0 0 0-1.718.922 9.31 9.31 0 0 0-1.52 1.238c-.46.461-.883.969-1.25 1.52a9.657 9.657 0 0 0-.922 1.73 9.903 9.903 0 0 0-.762 3.82c0 .649.063 1.31.192 1.961a10.002 10.002 0 0 0 2.742 5.11c.457.46.969.879 1.52 1.25a10.074 10.074 0 0 0 3.59 1.488 9.775 9.775 0 0 0 1.957.192 9.922 9.922 0 0 0 3.82-.762 9.758 9.758 0 0 0 3.25-2.168c.46-.461.883-.973 1.242-1.52.36-.543.668-1.12.918-1.722.25-.61.441-1.239.57-1.868a9.624 9.624 0 0 0 0-3.91c-.129-.64-.32-1.27-.57-1.87zm191.73-4.16l-30.805-23.231c-4.406-3.325-10.68-2.446-14.004 1.964s-2.445 10.68 1.965 14.004l6.953 5.243H345.633c-5.52 0-10 4.48-10 10 0 5.523 4.48 10 10 10h126.496l-6.953 5.246c-4.41 3.324-5.29 9.593-1.965 14.004a9.988 9.988 0 0 0 7.992 3.98 9.95 9.95 0 0 0 6.012-2.016l30.805-23.23a9.994 9.994 0 0 0 0-15.965zm0 0"/><path d="M283.531 84.207a10.008 10.008 0 0 0-14.508-6.676l-31.062 16.711c-4.863 2.613-6.684 8.68-4.07 13.543 2.617 4.863 8.68 6.688 13.547 4.07l6.238-3.359c-16.895 36.305-59.746 74.445-114.192 101.133-18.414 9.023-37.214 16.277-55.875 21.555-5.312 1.504-8.402 7.027-6.902 12.343 1.246 4.403 5.258 7.282 9.617 7.282.903 0 1.82-.125 2.73-.383 19.813-5.602 39.743-13.285 59.235-22.84 57.2-28.035 102.832-68.703 122.41-108.379l.813 3.727c1.02 4.675 5.16 7.87 9.761 7.87.707 0 1.422-.077 2.141-.234 5.395-1.175 8.816-6.504 7.64-11.902zm0 0"/></symbol><symbol viewBox="0 0 480 480" id="gym" xmlns="http://www.w3.org/2000/svg"><path d="M472 144h-24v-12c0-15.464-12.536-28-28-28-4.16.023-8.261.983-12 2.808V96c0-17.673-14.327-32-32-32-17.673 0-32 14.327-32 32v48h-32v-8c.058-13.197-10.593-23.943-23.79-24.002A23.89 23.89 0 0 0 272 118.24c-9.044-8.32-22.956-8.32-32 0-9.044-8.32-22.956-8.32-32 0-9.75-8.894-24.864-8.2-33.758 1.55A23.9 23.9 0 0 0 168 136v8h-32V96c0-17.673-14.327-32-32-32-17.673 0-32 14.327-32 32v10.808A27.706 27.706 0 0 0 60 104c-15.464 0-28 12.536-28 28v12H8a8 8 0 0 0-8 8v48a8 8 0 0 0 8 8h24v12c0 15.464 12.536 28 28 28a27.706 27.706 0 0 0 12-2.808V256c0 17.673 14.327 32 32 32 17.673 0 32-14.327 32-32v-48h16v26.744a39.745 39.745 0 0 0 11.72 28.28L184 283.312V416h16V280a8 8 0 0 0-2.344-5.656l-22.624-22.632A24.133 24.133 0 0 1 168 234.744V184h46.856a9.6 9.6 0 0 1 7.744 3.752c.056.08.12.16.176.248.343.546.612 1.135.8 1.752.151.493.253.999.304 1.512.056.502.056 1.01 0 1.512a6.507 6.507 0 0 1-.104.8 8.37 8.37 0 0 1-.92 2.4A7.903 7.903 0 0 1 216 200h-24a8 8 0 0 0-8 8v16a8 8 0 0 0 5.472 7.592l17.6 5.88C221.36 242.216 232 263.84 232 280h16c0-22.008-13.696-50.336-35.832-57.712L200 218.232V216h16a23.864 23.864 0 0 0 17.6-8H304v29.336a24.138 24.138 0 0 1-4.8 14.4L281.6 275.2a7.998 7.998 0 0 0-1.6 4.8v136h16V282.664l16-21.328a40.226 40.226 0 0 0 8-24V208h24v48c0 17.673 14.327 32 32 32 17.673 0 32-14.327 32-32v-10.808A27.706 27.706 0 0 0 420 248c15.464 0 28-12.536 28-28v-12h24a8 8 0 0 0 8-8v-48a8 8 0 0 0-8-8zM32 192H16v-32h16v32zm40 28c0 6.627-5.373 12-12 12s-12-5.373-12-12v-88c0-6.627 5.373-12 12-12s12 5.373 12 12v88zm48 36c0 8.837-7.163 16-16 16s-16-7.163-16-16V96c0-8.837 7.163-16 16-16s16 7.163 16 16v160zm40-88a8 8 0 0 0-8 8v16h-16v-32h32c.009 1.512.161 3.021.456 4.504.088.472.24.904.352 1.36.184.712.32 1.448.56 2.136H160zm40-8a8 8 0 0 1-16 0v-24a8 8 0 0 1 16 0v24zm32 0a8 8 0 0 1-16 0v-24a8 8 0 0 1 16 0v24zm48-24a8 8 0 0 1 16 0v24a8 8 0 0 1-16 0v-24zm-32 0a8 8 0 0 1 16 0v24a8 8 0 0 1-16 0v-24zm96 56H240v-.224a23.85 23.85 0 0 0-.496-4.736c-.048-.216-.152-.416-.2-.64-.144-.584-.352-1.128-.536-1.696a23.215 23.215 0 0 0-1.224-2.992c-.232-.48-.344-1.024-.608-1.488.091-.062.179-.129.264-.2.368-.24.688-.528 1.04-.8.6-.448 1.232-.864 1.792-1.368.464.416 1 .744 1.496 1.12.496.376.984.8 1.52 1.136.755.466 1.535.891 2.336 1.272.544.264 1.056.576 1.6.8.934.358 1.891.655 2.864.888.504.136.976.328 1.496.432 3.077.629 6.25.629 9.328 0 .52-.104.992-.296 1.496-.432.973-.233 1.93-.53 2.864-.888.568-.232 1.08-.544 1.6-.8a24.548 24.548 0 0 0 2.344-1.272c.528-.352 1.008-.752 1.512-1.136.504-.384 1.032-.704 1.496-1.12.464.416 1 .744 1.496 1.12.496.376.984.8 1.52 1.136.755.466 1.535.891 2.336 1.272.544.264 1.056.576 1.6.8.934.358 1.891.655 2.864.888.504.136.976.328 1.496.432 12.955 2.633 25.591-5.734 28.224-18.688.322-1.585.483-3.198.48-4.816h32v32zm48 64c0 8.837-7.163 16-16 16s-16-7.163-16-16V96c0-8.837 7.163-16 16-16s16 7.163 16 16v160zm40-36c0 6.627-5.373 12-12 12s-12-5.373-12-12v-88c0-6.627 5.373-12 12-12s12 5.373 12 12v88zm32-28h-16v-32h16v32z"/></symbol><symbol viewBox="0 0 511 512" id="hand" xmlns="http://www.w3.org/2000/svg"><path d="M235.793 347.266a10.013 10.013 0 0 0 0-14.149c-3.906-3.898-10.234-3.898-14.145 0-3.898 3.91-3.898 10.238 0 14.149 3.91 3.898 10.239 3.898 14.145 0zM188.45 109.969c0 60.636 49.331 109.972 109.968 109.972s109.969-49.336 109.969-109.972S359.055 0 298.418 0 188.449 49.332 188.449 109.969zm199.945 0c0 49.613-40.364 89.976-89.977 89.976s-89.977-40.363-89.977-89.976c0-49.61 40.364-89.973 89.977-89.973s89.977 40.363 89.977 89.973zm0 0"/><path d="M115.652 509.043c3.875 3.906 10.184 3.95 14.11.082l48.468-47.75c8.235-8.234 10.739-20.426 7.118-31.023l10.425-10.055a29.814 29.814 0 0 1 20.817-8.41h132.902c23.578 0 45.863-9.055 62.758-25.496.695-.676-5.277 6.359 90.668-108.313 14.23-16.836 12.102-42.117-4.75-56.363-16.746-14.113-41.832-12.086-56.102 4.46l-58.992 60.634c-7.449-9.168-18.808-14.883-31.082-14.883h-111.48c-15.864-6.637-32.696-9.996-50.063-9.996-48.14 0-90.176 22.234-112.734 63.922-9.504-1.801-19.528 1.074-26.738 8.285L3.418 381.836c-3.883 3.894-3.89 10.195-.016 14.102zm74.793-227.121c15.313 0 30.118 3.082 44.012 9.16a9.979 9.979 0 0 0 4.008.84h113.527c10.84 0 19.996 8.84 19.996 19.992 0 11.027-8.968 19.996-19.996 19.996h-81.566c-5.52 0-9.996 4.477-9.996 9.996 0 5.524 4.476 9.996 9.996 9.996h81.566c22.051 0 39.988-17.937 39.988-39.988 0-1.758-.125-3.5-.351-5.227 57.066-58.66 65.113-66.902 65.457-67.312 7.125-8.41 19.773-9.477 28.187-2.383 8.422 7.121 9.489 19.762 2.344 28.219L397.95 372.406c-13.094 12.57-30.285 19.489-48.457 19.489H216.59c-13.024 0-25.352 4.98-34.703 14.015l-8.496 8.2-78.32-78.317c18.304-34.34 52.652-53.871 95.374-53.871zm-125.32 66.344c3.297-3.297 8.36-3.891 12.379-1.407 1.73 1.055-3.238-3.468 86.59 86.235 3.996 3.996 3.781 10.363.054 14.09l-41.32 40.707-98.23-98.98zM286.422 49.988v11.715c-11.637 4.125-19.996 15.238-19.996 28.274 0 16.535 13.453 29.992 29.992 29.992 5.512 0 9.996 4.484 9.996 9.996 0 5.512-4.484 9.996-9.996 9.996-4.27 0-8.883-2.684-12.98-7.563-3.555-4.226-9.86-4.77-14.086-1.218-4.227 3.554-4.774 9.86-1.22 14.086 5.345 6.355 11.63 10.785 18.29 13.02v11.667c0 5.524 4.476 9.996 9.996 9.996s9.996-4.472 9.996-9.996v-11.715c11.637-4.129 19.996-15.242 19.996-28.273 0-16.54-13.453-29.992-29.992-29.992-5.512 0-9.996-4.485-9.996-9.996 0-5.512 4.484-10 9.996-10 3.543 0 7.281 1.808 10.812 5.226 3.97 3.84 10.297 3.734 14.137-.23 3.84-3.97 3.735-10.297-.23-14.137-5.075-4.91-10.153-7.688-14.723-9.203V49.988c0-5.523-4.477-10-9.996-10s-9.996 4.477-9.996 10zm0 0"/></symbol><symbol viewBox="0 0 512 512" id="hotel" xmlns="http://www.w3.org/2000/svg"><path d="M154.518 145.733h-48c-5.523 0-10 4.477-10 10v56c0 5.523 4.477 10 10 10h48c5.523 0 10-4.477 10-10v-56c0-5.523-4.477-10-10-10zm-10 56h-28v-36h28v36zm10 56h-48c-5.523 0-10 4.477-10 10v56c0 5.523 4.477 10 10 10h48c5.523 0 10-4.477 10-10v-56c0-5.523-4.477-10-10-10zm-10 56h-28v-36h28v36zm10 56h-48c-5.523 0-10 4.477-10 10v56c0 5.523 4.477 10 10 10h48c5.523 0 10-4.477 10-10v-56c0-5.523-4.477-10-10-10zm-10 56h-28v-36h28v36zm270.979-56h-48c-5.523 0-10 4.477-10 10v56c0 5.523 4.477 10 10 10h48c5.523 0 10-4.477 10-10v-56c0-5.523-4.477-10-10-10zm-10 56h-28v-36h28v36zm-163.986-280h-48c-5.523 0-10 4.477-10 10v56c0 5.523 4.477 10 10 10h48c5.523 0 10-4.477 10-10v-56c0-5.523-4.477-10-10-10zm-10 56h-28v-36h28v36zm96.992-56h-48c-5.523 0-10 4.477-10 10v56c0 5.523 4.477 10 10 10h48c5.523 0 10-4.477 10-10v-56c0-5.523-4.477-10-10-10zm-10 56h-28v-36h28v36zm-76.992 56h-48c-5.523 0-10 4.477-10 10v56c0 5.523 4.477 10 10 10h48c5.523 0 10-4.477 10-10v-56c0-5.523-4.477-10-10-10zm-10 56h-28v-36h28v36zm96.992-56h-48c-5.523 0-10 4.477-10 10v56c0 5.523 4.477 10 10 10h48c5.523 0 10-4.477 10-10v-56c0-5.523-4.477-10-10-10zm-10 56h-28v-36h28v36zm96.994-168h-48c-5.523 0-10 4.477-10 10v56c0 5.523 4.477 10 10 10h48c5.523 0 10-4.477 10-10v-56c0-5.523-4.477-10-10-10zm-10 56h-28v-36h28v36zm10 56h-48c-5.523 0-10 4.477-10 10v56c0 5.523 4.477 10 10 10h48c5.523 0 10-4.477 10-10v-56c0-5.523-4.477-10-10-10zm-10 56h-28v-36h28v36z"/><path d="M502 492h-37.511V104.063c0-5.523-4.477-10-10-10h-55.502V58c0-5.523-4.477-10-10-10H334V10c0-5.523-4.477-10-10-10H188c-5.523 0-10 4.477-10 10v38h-54.986c-5.523 0-10 4.477-10 10v36.063H57.511c-5.523 0-10 4.477-10 10V492H10c-5.523 0-10 4.477-10 10s4.477 10 10 10h492c5.523 0 10-4.477 10-10s-4.477-10-10-10zM198 20h116v28H198V20zm100 472h-69.191L298 422.809V492zm0-97.413c-.223.187-.443.38-.653.59L214 478.524v-42.382L278.143 372H298v22.587zm-84 13.27V372h35.857L214 407.857zM444.489 492H318V372h3.5c5.523 0 10-4.477 10-10s-4.477-10-10-10h-131c-5.523 0-10 4.477-10 10s4.477 10 10 10h3.5v120H67.511V114.063h111.007c5.523 0 10-4.477 10-10s-4.477-10-10-10h-45.504V68h245.973v26.063H257.524c-5.523 0-10 4.477-10 10s4.477 10 10 10h186.965V492z"/><path d="M224.58 96.99c-1.86-1.86-4.44-2.93-7.07-2.93s-5.21 1.07-7.07 2.93-2.93 4.44-2.93 7.07 1.07 5.21 2.93 7.07c1.86 1.87 4.44 2.93 7.07 2.93s5.21-1.06 7.07-2.93c1.86-1.86 2.93-4.44 2.93-7.07s-1.07-5.21-2.93-7.07z"/></symbol><symbol viewBox="0 0 512 512" id="info" xmlns="http://www.w3.org/2000/svg"><path d="M0 0v512h512V0H0zm462.452 462.452H49.548V49.548h412.903v412.904z"/><path d="M272.516 330.323V222.968h-49.548v156.903h90.838v-49.548zm-24.774-206.452c-18.214 0-33.032 14.818-33.032 33.032s14.818 33.032 33.032 33.032 33.032-14.818 33.032-33.032-14.818-33.032-33.032-33.032z"/></symbol><symbol viewBox="0 0 512 512" id="instagram" xmlns="http://www.w3.org/2000/svg"><path d="M363.273 0H148.728C66.719 0 0 66.719 0 148.728v214.544C0 445.281 66.719 512 148.728 512h214.544C445.281 512 512 445.281 512 363.273V148.728C512 66.719 445.281 0 363.273 0zM472 363.272C472 423.225 423.225 472 363.273 472H148.728C88.775 472 40 423.225 40 363.273V148.728C40 88.775 88.775 40 148.728 40h214.544C423.225 40 472 88.775 472 148.728v214.544z"/><path d="M256 118c-76.094 0-138 61.906-138 138s61.906 138 138 138 138-61.906 138-138-61.906-138-138-138zm0 236c-54.037 0-98-43.963-98-98s43.963-98 98-98 98 43.963 98 98-43.963 98-98 98z"/><circle cx="396" cy="116" r="20"/></symbol><symbol viewBox="0 0 512 512" id="like" xmlns="http://www.w3.org/2000/svg"><path d="M469.51 317c7.14-7.97 11.49-18.49 11.49-30 0-24.81-20.19-45-45-45h-87.34c8.65-26.25 12.34-61.08 12.34-76.01V151c0-33.08-26.92-60-60-60h-15c-6.88 0-12.88 4.68-14.55 11.36l-8.17 32.69c-11.45 45.78-47.8 96.29-85.42 105.47C171.27 223.84 155 212 136 212H46c-8.28 0-15 6.72-15 15v270c0 8.28 6.72 15 15 15h90c17.89 0 33.37-10.49 40.62-25.65l51.54 17.18c16.85 5.62 34.41 8.47 52.18 8.47H406c24.81 0 45-20.19 45-45 0-5.85-1.12-11.45-3.16-16.58C466.92 445.21 481 427.72 481 407c0-11.51-4.35-22.03-11.49-30 7.14-7.97 11.49-18.49 11.49-30s-4.35-22.03-11.49-30zM151 467c0 8.27-6.73 15-15 15H61V242h75c8.27 0 15 6.73 15 15v210zm255-135h30c8.27 0 15 6.73 15 15s-6.73 15-15 15h-30c-8.28 0-15 6.72-15 15 0 8.28 6.72 15 15 15h30c8.27 0 15 6.73 15 15s-6.73 15-15 15h-30c-8.28 0-15 6.72-15 15 0 8.28 6.72 15 15 15 8.27 0 15 6.73 15 15s-6.73 15-15 15H280.34c-14.54 0-28.91-2.33-42.7-6.93L181 456.19V270.58c23.53-4.47 46.56-19.37 67.35-43.76 20.3-23.82 36.76-55.4 44.03-84.49l5.33-21.33H301c16.54 0 30 13.46 30 30v14.99c0 20.14-6.3 58.77-14.36 76.01H286c-8.28 0-15 6.72-15 15 0 8.28 6.72 15 15 15h150c8.27 0 15 6.73 15 15s-6.73 15-15 15h-30c-8.28 0-15 6.72-15 15 0 8.28 6.72 15 15 15z"/><circle cx="106" cy="437" r="15"/><path d="M316 0c-8.284 0-15 6.716-15 15v31c0 8.284 6.716 15 15 15s15-6.716 15-15V15c0-8.284-6.716-15-15-15zm-63.64 66.148l-21.213-21.213c-5.857-5.858-15.355-5.858-21.213 0-5.858 5.858-5.858 15.355 0 21.213l21.213 21.213c5.857 5.857 15.356 5.858 21.213 0 5.858-5.858 5.858-15.355 0-21.213zm169.706-21.213c-5.857-5.858-15.355-5.858-21.213 0L379.64 66.147c-5.858 5.858-5.858 15.355 0 21.213 5.857 5.858 15.355 5.859 21.213.001l21.213-21.213c5.858-5.858 5.858-15.355 0-21.213z"/></symbol><symbol viewBox="0 0 344.492 344.492" id="locked" xmlns="http://www.w3.org/2000/svg"><path d="M289.708 117.492h-24.539V66.659C265.169 29.903 235.266 0 198.51 0h-52.527c-36.756 0-66.659 29.903-66.659 66.659v50.833H54.785c-6.904 0-12.5 5.596-12.5 12.5v122.095c0 50.953 41.453 92.405 92.406 92.405h75.11c50.953 0 92.406-41.453 92.406-92.405V129.992c.001-6.904-5.595-12.5-12.499-12.5zM104.325 66.659c0-22.971 18.688-41.659 41.659-41.659h52.528c22.971 0 41.658 18.688 41.658 41.659v50.833H104.325V66.659zm172.883 185.428c0 37.167-30.238 67.405-67.405 67.405h-75.111c-37.167 0-67.406-30.238-67.406-67.405V142.492h209.922v109.595z"/><path d="M159.747 277.992c0 6.904 5.596 12.5 12.5 12.5 6.903 0 12.5-5.596 12.5-12.5v-35.689a12.438 12.438 0 0 0 2.375-7.311c0-6.903-5.597-12.5-12.5-12.5h-4.75c-6.903 0-12.5 5.597-12.5 12.5 0 2.732.887 5.253 2.375 7.311v35.689z"/></symbol><symbol viewBox="0 0 512 512" id="megaphone" xmlns="http://www.w3.org/2000/svg"><path d="M449.511 137.648v-82.38c0-9.072-4.668-17.227-12.487-21.814-7.849-4.605-17.29-4.7-25.251-.247-76.024 42.516-158.725 67.345-245.805 73.802-.667.049-79.372.393-79.372.393-19.767 0-36.105 14.923-38.366 34.091H32.075C14.39 141.493 0 155.881 0 173.567v70.468c0 17.686 14.39 32.075 32.075 32.075h16.153c1.628 13.795 10.544 25.383 22.785 30.799l57.485 158.648c3.593 9.875 13.067 16.511 23.578 16.511h57.687a25.11 25.11 0 0 0 20.551-10.697 25.107 25.107 0 0 0 3.03-22.96l-49.389-136.237c80.482 8.361 157.039 32.601 227.817 72.183 3.905 2.184 8.166 3.273 12.42 3.273 4.417-.001 8.83-1.175 12.829-3.521 7.819-4.588 12.489-12.742 12.489-21.816v-82.38c35.201-4.56 62.49-34.709 62.49-71.132 0-36.424-27.289-66.574-62.489-71.133zM47.951 251.372H32.075a7.345 7.345 0 0 1-7.338-7.338v-70.467c0-4.044 3.291-7.337 7.338-7.337h15.876v85.142zm32.979 32.873c-4.85-2.174-8.242-7.039-8.242-12.688V146.044h.001c0-7.667 6.239-13.905 13.906-13.905h67.333v153.324s-67.92-.026-68.213-.044c-2.481-.287-3.003-.415-4.785-1.174zm129.161 172.608c.04.101.066.173-.041.324-.105.151-.183.151-.288.151h-57.687a.352.352 0 0 1-.327-.215L98.515 310.199h58.411l53.165 146.654zm214.683-94.559c0 .179 0 .322-.267.479-.318.184-.508.079-.66-.006-76.034-42.52-158.469-68.045-245.182-75.96v-156.04c86.72-7.927 169.155-33.454 245.179-75.97.156-.085.349-.19.663-.006.267.157.267.298.267.477v307.026zm24.737-107.421v-92.185c21.503 4.314 37.752 23.339 37.752 46.092 0 22.754-16.25 41.78-37.752 46.093z"/></symbol><symbol viewBox="0 0 512.009 512.009" id="muscles" xmlns="http://www.w3.org/2000/svg"><path d="M441.071 192.046l-3.729-.042c-52 0-98.785 29.068-122.577 74.587-14.966-6.75-31.194-10.587-48.09-10.587-27.913 0-54.163 9.952-74.945 27.285-.401-18.324-2.788-36.573-5.117-52.785-1.995-13.861-3.909-27.31-4.034-38.509l53.93.009c8.542 0 16.583-3.333 22.625-9.375l42.667-42.667c12.195-12.195 12.279-31.755.638-44.289 4.066-6.094 6.003-13.393 5.258-20.846-.948-9.573-6.083-18.135-14.094-23.469l-25.896-17.26a75.703 75.703 0 0 0-42.135-12.76c-31.375 0-60.865 12.219-83.052 34.406-40.866 40.864-73.022 87.656-95.605 139.083-27.208 61.958-41 107.667-41 135.844 0 16.146-1.396 29.26-4.156 38.99-5.896 20.781 3.385 42.948 22.563 53.906 76.823 43.896 164.198 67.104 252.677 67.104h15.427a508.419 508.419 0 0 0 161.063-26.135l7.469-2.5a74.552 74.552 0 0 0 51.052-70.823V266.765c-.001-40.167-31.824-73.688-70.939-74.719zm49.604 199.167a53.261 53.261 0 0 1-36.479 50.594l-7.469 2.5a487.265 487.265 0 0 1-154.302 25.031h-15.427c-84.771 0-168.49-22.229-242.094-64.292-10.646-6.083-15.833-18.24-12.625-29.563 3.302-11.615 4.969-26.698 4.969-44.813 0-24.854 13.552-68.854 39.208-127.26 21.5-49 52.167-93.604 91.146-132.583 18.156-18.156 42.292-28.156 67.969-28.156a54.461 54.461 0 0 1 30.302 9.177l25.896 17.26a10.606 10.606 0 0 1 4.698 7.823 10.622 10.622 0 0 1-3.063 8.594l-34.073 34.073a11.947 11.947 0 0 1-13.802 2.24c-3.479-1.74-5.833-4.938-6.458-8.781s.594-7.625 3.344-10.375l9.802-9.802c4.167-4.167 4.167-10.917 0-15.083-4.167-4.167-10.917-4.167-15.083 0l-9.802 9.802c-7.656 7.656-11.063 18.188-9.323 28.885 1.74 10.688 8.292 19.594 17.979 24.438 12.813 6.396 28.281 3.917 38.427-6.24l23.332-23.332c2.883 4.154 2.668 9.832-1.03 13.53l-42.667 42.667a10.74 10.74 0 0 1-7.542 3.125l-49.807-.008c.669-1.107 1.311-2.246 2.182-3.117 4.167-4.167 4.167-10.917 0-15.083-4.167-4.167-10.917-4.167-15.083 0-17.448 17.448-13.208 46.938-8.302 81.083 2.542 17.729 5.177 36.063 5.177 54.458 0 43.938-33.25 53.292-34.667 53.667-5.667 1.469-9.104 7.229-7.677 12.917 1.208 4.854 5.552 8.083 10.333 8.083.854 0 1.729-.104 2.594-.323 12.772-3.191 33.703-15.448 44.224-40.589.145-.194.381-.267.516-.474 17.792-27.521 47.948-43.948 80.677-43.948 25.479 0 49.479 9.875 67.573 27.813 4.188 4.146 10.948 4.125 15.083-.063 4.146-4.188 4.125-10.938-.063-15.083-4.935-4.893-10.345-9.112-15.939-12.999 20.049-38.836 59.803-63.668 104.012-63.668l3.156.042c27.667.729 50.177 24.677 50.177 53.385v124.448z"/></symbol><symbol viewBox="0 0 424 424" id="network" xmlns="http://www.w3.org/2000/svg"><path d="M212 126.56c-46.88 0-76 24-76 62.88a8 8 0 0 0 8 8h136a8 8 0 0 0 8-8c0-38.8-29.12-62.88-76-62.88zm-59.44 54.88c5.28-35.92 46.32-38.88 59.44-38.88s54.16 2.96 59.44 38.88H152.56zM212 42.56c-20.987 0-38 17.013-38 38 .044 20.969 17.031 37.956 38 38 20.987 0 38-17.013 38-38s-17.013-38-38-38zm0 60c-12.15 0-22-9.85-22-22s9.85-22 22-22 22 9.85 22 22-9.85 22-22 22zm-136 208c-46.88 0-76 24-76 62.88a8 8 0 0 0 8 8h136a8 8 0 0 0 8-8c0-38.8-29.12-62.88-76-62.88zm-59.44 54.88c5.28-35.92 46.24-38.88 59.44-38.88s54.16 2.96 59.44 38.88H16.56zM76 226.56c-20.987 0-38 17.013-38 38 .044 20.969 17.031 37.956 38 38 20.987 0 38-17.013 38-38s-17.013-38-38-38zm0 60c-12.15 0-22-9.85-22-22s9.85-22 22-22 22 9.85 22 22-9.85 22-22 22zm272 24c-46.88 0-76 24-76 62.88a8 8 0 0 0 8 8h136a8 8 0 0 0 8-8c0-38.8-29.12-62.88-76-62.88zm-59.44 54.88c5.28-35.92 46.24-38.88 59.44-38.88s54.16 2.96 59.44 38.88H288.56zM348 226.56c-20.987 0-38 17.013-38 38 .044 20.969 17.031 37.956 38 38 20.987 0 38-17.013 38-38s-17.013-38-38-38zm0 60c-12.15 0-22-9.85-22-22s9.85-22 22-22 22 9.85 22 22-9.85 22-22 22zm-94.64 10.16L220 263.2V216a8 8 0 0 0-16 0v47.2l-33.36 33.36A8.033 8.033 0 1 0 181.92 308L212 277.84 242.08 308a8 8 0 0 0 11.28-11.28z"/></symbol><symbol viewBox="0 0 391.76 391.76" id="pen" xmlns="http://www.w3.org/2000/svg"><path d="M383.76 18.64H220.24a7.968 7.968 0 0 0-2 0h-.8a8.006 8.006 0 0 0-2.24 1.52l-52.88 52.72-32 32.48a7.983 7.983 0 0 0-1.44 2.24v.8a7.968 7.968 0 0 0 0 2v260.24a8 8 0 0 0 6.88 8h248a8 8 0 0 0 8-8v-344a8 8 0 0 0-8-8zM212.8 46v58.08h-57.92L212.8 46zm162.96 316.64h-232V120.08h77.04a8 8 0 0 0 8-8V34.64h147.04l-.08 328zM99.68 87.04H81.52V68.96a8 8 0 0 0-8-8h-4.88V19.6a8 8 0 0 0-8-8h-40a8 8 0 0 0-8 8v41.36H8a8 8 0 0 0-8 8v205.92c.017.959.207 1.908.56 2.8v.48l32 65.44v28.56a8 8 0 0 0 16 0v-28.32l32-65.44v-.48c.282-.771.444-1.58.48-2.4V103.04h10.64v48.72a8 8 0 0 0 16 0V95.04a8 8 0 0 0-8-8zM28.88 28h24v33.36h-24V28zM40.8 324l-19.92-40.88h40L40.8 324zm24.72-57.12H16V76.96h49.52v189.92z"/><path d="M345.84 151.44h-172a8 8 0 0 0 0 16h172a8 8 0 0 0 0-16zm0 43.92h-172a8 8 0 0 0-.022 16H345.84a8 8 0 0 0 0-16zm0 43.84h-172a8 8 0 0 0 0 16h172a8 8 0 0 0 0-16zm0 43.92h-172a8 8 0 0 0 0 16h172a8 8 0 0 0 0-16z"/></symbol><symbol viewBox="0 0 348.077 348.077" id="phone" xmlns="http://www.w3.org/2000/svg"><path d="M340.273 275.083l-53.755-53.761c-10.707-10.664-28.438-10.34-39.518.744l-27.082 27.076a792.327 792.327 0 0 1-5.344-2.973c-17.102-9.476-40.509-22.464-65.14-47.113-24.704-24.701-37.704-48.144-47.209-65.257-1.003-1.813-1.964-3.561-2.913-5.221l18.176-18.149 8.936-8.947c11.097-11.1 11.403-28.826.721-39.521L73.39 8.194c-10.682-10.68-28.421-10.356-39.518.744l-15.15 15.237.414.411c-5.08 6.482-9.325 13.958-12.484 22.02C3.74 54.28 1.927 61.603 1.098 68.941-6 127.785 20.89 181.564 93.866 254.541c100.875 100.868 182.167 93.248 185.674 92.876 7.638-.913 14.958-2.738 22.397-5.627 7.992-3.122 15.463-7.361 21.941-12.43l.331.294 15.348-15.029c11.074-11.098 11.393-28.83.716-39.542z"/></symbol><symbol viewBox="0 0 60 60" id="route" xmlns="http://www.w3.org/2000/svg"><path d="M21.021 28.977C18.75 26.412 15.722 25 12.493 25s-6.257 1.412-8.527 3.977c-4.612 5.211-4.612 13.688 0 18.899l8.527 9.633 8.527-9.633c4.613-5.211 4.613-13.688.001-18.899zM19.523 46.55l-7.029 7.941-7.03-7.941c-3.966-4.479-3.966-11.768 0-16.247C7.349 28.173 9.846 27 12.493 27s5.145 1.173 7.029 3.303c3.966 4.479 3.966 11.767.001 16.247zm29.224-22.043l6.464-7.286c3.478-3.92 3.478-10.296 0-14.216C53.491 1.067 51.195 0 48.746 0c-2.448 0-4.744 1.067-6.464 3.005-3.478 3.92-3.478 10.296 0 14.216l6.465 7.286zM43.778 4.333C45.113 2.828 46.877 2 48.746 2c1.87 0 3.634.828 4.969 2.333 2.828 3.187 2.828 8.373 0 11.56l-4.968 5.601-4.969-5.601c-2.828-3.187-2.828-8.373 0-11.56zm8.826 50.184a1 1 0 0 0-1.195.756 3.47 3.47 0 0 1-.663 1.392 1 1 0 1 0 1.572 1.236 5.51 5.51 0 0 0 1.042-2.188 1 1 0 0 0-.756-1.196zM31.995 31a3.517 3.517 0 0 1-1.252-.23 1.004 1.004 0 0 0-1.291.578 1.002 1.002 0 0 0 .578 1.291c.626.238 1.285.36 1.963.361h.357a1 1 0 1 0 0-2h-.355zm-2.374-6.324a1 1 0 0 0 .528-.151 3.451 3.451 0 0 1 1.454-.503 1.001 1.001 0 0 0-.219-1.989 5.423 5.423 0 0 0-2.294.794 1 1 0 0 0 .531 1.849zM18.064 58h-2a1 1 0 1 0 0 2h2a1 1 0 1 0 0-2zm17.929-18c-.086 0-.171.002-.256.006a1 1 0 0 0 .04 1.999l.042-.001L37.778 42a1 1 0 1 0 0-2h-1.785zm-.5-16h2a1 1 0 1 0 0-2h-2a1 1 0 1 0 0 2zm12.285 16a1 1 0 1 0 0 2h2a1 1 0 1 0 0-2h-2zm3.573-8a1 1 0 0 0-1-1h-2a1 1 0 1 0 0 2h2a1 1 0 0 0 1-1zm-9.573 10h2a1 1 0 1 0 0-2h-2a1 1 0 1 0 0 2zm1.715-18a1 1 0 1 0 0-2h-2a1 1 0 1 0 0 2h2zm-7.142 7a1 1 0 1 0 0 2h2a1 1 0 1 0 0-2h-2zm9 1a1 1 0 0 0-1-1h-2a1 1 0 1 0 0 2h2a1 1 0 0 0 1-1zm14.075 3.632a1 1 0 1 0-1.975.317 3.502 3.502 0 0 1-.1 1.54 1 1 0 1 0 1.92.562 5.51 5.51 0 0 0 .155-2.419zM42.064 58h-2a1 1 0 1 0 0 2h2a1 1 0 1 0 0-2zm-6 0h-2a1 1 0 1 0 0 2h2a1 1 0 1 0 0-2zm11.001-8a1 1 0 0 0-1-1h-2a1 1 0 1 0 0 2h2a1 1 0 0 0 1-1zm-6 0a1 1 0 0 0-1-1h-2a1 1 0 1 0 0 2h2a1 1 0 0 0 1-1zm6.928 8h-1.93a1 1 0 1 0 0 2l1.971-.001.029-1v1c.553 0 .965-.447.965-1 0-.552-.482-.999-1.035-.999zm3.538-5.281a1 1 0 0 0 .785-1.618 5.543 5.543 0 0 0-1.879-1.528 1 1 0 1 0-.891 1.791c.463.229.877.566 1.197.974.198.25.491.381.788.381zm3.814-12.99c-.429.18-.883.271-1.352.271h-.215a1 1 0 1 0 0 2h.215a5.46 5.46 0 0 0 2.125-.427 1 1 0 1 0-.773-1.844zm-27.316-9.874c.524-.173.81-.738.638-1.263a3.494 3.494 0 0 1-.146-1.537 1 1 0 0 0-.867-1.117.995.995 0 0 0-1.117.867 5.504 5.504 0 0 0 .229 2.412 1.001 1.001 0 0 0 1.263.638zM24.064 58h-2a1 1 0 1 0 0 2h2a1 1 0 1 0 0-2zm10.058-7.406a1 1 0 0 0 .417-1.909 3.538 3.538 0 0 1-1.228-.936 1 1 0 1 0-1.531 1.287 5.538 5.538 0 0 0 1.927 1.467c.135.061.276.091.415.091zm22.624-18.856a5.438 5.438 0 0 0-2.317-.722 1 1 0 1 0-.156 1.994 3.443 3.443 0 0 1 1.47.458 1 1 0 0 0 1.003-1.73zM30.064 58h-2a1 1 0 1 0 0 2h2a1 1 0 1 0 0-2zm2.491-13.161c.099-.514.307-.989.619-1.413a1 1 0 0 0-1.611-1.185 5.48 5.48 0 0 0-.973 2.222 1.001 1.001 0 0 0 1.965.376z"/><path d="M48.993 15c3.032 0 5.5-2.468 5.5-5.5S52.025 4 48.993 4s-5.5 2.468-5.5 5.5 2.468 5.5 5.5 5.5zm0-9c1.93 0 3.5 1.57 3.5 3.5s-1.57 3.5-3.5 3.5-3.5-1.57-3.5-3.5 1.571-3.5 3.5-3.5zm-36.5 25c-3.309 0-6 2.691-6 6s2.691 6 6 6 6-2.691 6-6-2.691-6-6-6zm0 10c-2.206 0-4-1.794-4-4s1.794-4 4-4 4 1.794 4 4-1.794 4-4 4z"/></symbol><symbol viewBox="0 0 474.199 474.199" id="running-man" xmlns="http://www.w3.org/2000/svg"><path d="M471.952 187.434c-5.925-14.918-22.822-22.208-37.74-16.283-.767.305-1.522.642-2.26 1.011L410.4 182.954l-44-58.656a8.005 8.005 0 0 0-1.96-1.856l-48-32a7.995 7.995 0 0 0-3.2-1.248l-104-16a8.001 8.001 0 0 0-6.864 2.24l-59.64 59.416c-10.016 9.979-10.047 26.188-.068 36.204l.068.068c9.553 9.489 24.811 9.992 34.968 1.152l48.328-42.288 42.88 12.256-35.888 78.856-55.056 78.648-65.44 58.888c-11.918 10.237-13.281 28.198-3.044 40.116s28.198 13.281 40.116 3.044l72.096-59.04 43.096-43.096 54.656 41-12.16 84.864a27.631 27.631 0 0 0 6.48 22.032 27.93 27.93 0 0 0 21.432 9.544c13.583.019 25.257-9.632 27.792-22.976l20.912-111.552a8 8 0 0 0-2.592-7.488l-59.92-52.384 25.504-70.128 47.088 53.816a8 8 0 0 0 9.248 2.048l54.016-23.888c14.201-6.291 20.743-22.801 14.704-37.112zm-21.176 22.464l-48.632 21.504-52.128-59.576a8 8 0 0 0-13.536 2.536l-32 88a8 8 0 0 0 2.248 8.752l60.568 53L347.2 431.178a12.384 12.384 0 0 1-12.536 9.92c-6.442-.002-11.663-5.225-11.661-11.667 0-.55.039-1.1.117-1.645l12.8-89.552a7.999 7.999 0 0 0-3.12-7.536l-64-48a8 8 0 0 0-10.456.744l-47.408 47.464-71.504 58.504c-5.287 4.381-13.124 3.646-17.505-1.641-4.273-5.157-3.693-12.773 1.313-17.223l66.112-59.504a7.766 7.766 0 0 0 1.2-1.36l56-80c.283-.4.526-.826.728-1.272l40-88a8 8 0 0 0-5.08-11l-56-16a7.952 7.952 0 0 0-7.472 1.672l-51.6 45.152c-3.879 3.625-9.963 3.419-13.588-.46s-3.419-9.963.46-13.588l56.8-56.568 98.248 15.12 45.352 30.256 47.2 62.904a8 8 0 0 0 9.976 2.36l27.528-13.8a12.92 12.92 0 0 1 10.4-.536 13.439 13.439 0 0 1 7.768 8c2.49 6.206-.382 13.269-6.496 15.976zM48 65.098h104v16H48zm-32 0h16v16H16zm64 64h16v16H80zm-80 0h64v16H0zm40 64h80v16H40z"/><path d="M16 257.098h136v16H16zm16 64h64v16H32zm-32 0h16v16H0zm16 64h56v16H16zm384-368h-36c-24.301 0-44 19.699-44 44s19.699 44 44 44 44-19.699 44-44v-36a8 8 0 0 0-8-8zm-8 44c.06 15.402-12.376 27.937-27.778 27.997a27.89 27.89 0 0 1-22.11-10.749A73.297 73.297 0 0 1 392 57.194v3.904zm0-19.904a89.15 89.15 0 0 0-55.888 21.016c0-.376-.112-.728-.112-1.112 0-15.464 12.536-28 28-28h28v8.096z"/></symbol><symbol viewBox="0 0 512.008 512.008" id="shield" xmlns="http://www.w3.org/2000/svg"><path d="M469.834 223.277V74.767a9.319 9.319 0 0 0-6.441-8.863L262.014.46a9.202 9.202 0 0 0-6.013.093 9.316 9.316 0 0 0-6.024-.093L48.604 65.904a9.31 9.31 0 0 0-6.441 8.863l.012 148.157c-.081 2.166-5.74 217.592 209.008 288.609.944.319 1.94.475 2.931.475h3.783c.991 0 1.987-.156 2.931-.475 214.741-71.017 209.082-286.449 209.006-288.256zm-213.45 270.09h-.765C55.804 426.388 60.496 231.885 60.798 223.277V81.533L255.73 18.185c.093-.029.18-.064.272-.093.081.029.174.064.261.093L451.2 81.538l.012 142.098c.075 2.016 5.352 202.595-194.828 269.731z"/><path d="M411.665 101.251L260.543 50.397c-1.309-.434-2.665-.539-3.922-.434-1.263-.098-2.601 0-3.922.434L101.594 101.25a9.332 9.332 0 0 0-6.343 8.834l.012 115.718c.052 1.662 7.606 167.197 157.993 225.453a9.388 9.388 0 0 0 3.365.626 9.388 9.388 0 0 0 3.365-.626c150.393-58.256 157.958-223.79 158.021-225.783V110.084a9.336 9.336 0 0 0-6.342-8.833zM256.621 432.557c-135.523-54.908-142.683-205.88-142.735-207.079V116.78l142.735-48.038 142.752 48.038.006 108.362c-.063 1.529-7.235 152.507-142.758 207.415z"/><path d="M363.292 187.183c-3.962-3.313-9.842-2.757-13.126 1.182l-107.84 129.163-69.563-73.05a9.322 9.322 0 0 0-13.172-.33c-3.73 3.551-3.875 9.453-.33 13.172l76.769 80.621a9.347 9.347 0 0 0 6.754 2.896c.098 0 .197 0 .301-.012a9.314 9.314 0 0 0 6.853-3.337l114.537-137.186c3.294-3.949 2.767-9.823-1.183-13.119z"/></symbol><symbol viewBox="0 0 354.838 354.838" id="stats" xmlns="http://www.w3.org/2000/svg"><path d="M348.4 17.419H6.8c-3.6 0-6.8 3.2-6.8 6.8v250c0 3.6 3.2 6.8 6.8 6.8h119.6v20.8h-10c-16 0-28.8 12.8-28.8 28.8 0 3.6 3.2 6.8 6.8 6.8 3.6 0 6.8-3.2 6.8-6.8 0-8.4 6.8-15.2 15.2-15.2h122c8.4 0 15.2 6.8 15.2 15.2 0 3.6 3.2 6.8 6.8 6.8 3.6 0 6.8-3.2 6.8-6.8 0-16-12.8-28.8-28.8-28.8h-10v-20.8H348c3.6 0 6.8-3.2 6.8-6.8v-250c.4-4-2.4-6.8-6.4-6.8zM140 299.819v-18.8h74.8v18.8H140zm201.6-32.4h-328v-34h328v34zm0-47.6h-328v-188.8h328v188.8z"/><path d="M156.4 257.819h42.4c3.6 0 6.8-3.2 6.8-6.8s-2.8-6.8-6.8-6.8h-42.4c-3.6 0-6.8 3.2-6.8 6.8s3.2 6.8 6.8 6.8zm-87.2-61.2c14.4 0 26-11.6 26-26 0-3.6-.8-7.2-2-10l34-26.8c4.4 3.2 9.6 5.2 15.6 5.2 6.8 0 13.2-2.8 18-7.2l18.4 10.8c-.4 2-.8 4-.8 6.4 0 14.4 11.6 26 26 26s26-11.6 26-26c0-2.4-.4-5.2-1.2-7.2l41.2-28.4c4.4 4 10.4 6.4 16.8 6.4 14.4 0 26-11.6 26-26s-11.6-26-26-26-26 11.6-26 26c0 2.8.4 5.6 1.6 8.4l-41.2 28c-4.8-4.4-10.8-7.2-17.6-7.2-7.2 0-13.6 2.8-18.4 7.6l-18-10.8c.8-2.4 1.2-4.8 1.2-7.2 0-14.4-11.6-26-26-26s-26 11.6-26 26c0 3.6.8 6.8 2 10l-34 26.8c-4.4-3.2-9.6-5.2-15.2-5.2-14.4 0-26 11.6-26 26-.4 14.8 11.2 26.4 25.6 26.4zm218-115.2c6.8 0 12.4 5.6 12.4 12.4s-5.6 12.4-12.4 12.4-12.4-5.6-12.4-12.4 5.6-12.4 12.4-12.4zm-94 61.6c2-4 6-6.4 10.8-6.4 6.8 0 12.4 5.6 12.4 12.4s-5.6 12.4-12.4 12.4-12.4-5.6-12.4-12.4c0-2 .4-4 1.6-6zm-50.8-42.4c6.8 0 12.4 5.6 12.4 12.4 0 2.4-.8 4.4-1.6 6.4v.4c-2.4 3.2-6 5.6-10.4 5.6-4 0-7.6-2-9.6-4.8-1.6-2-2.4-4.4-2.4-7.2-.8-7.2 4.8-12.8 11.6-12.8zm-73.2 57.6c4 0 7.2 2 9.6 4.8 1.6 2 2.8 4.8 2.8 7.6 0 6.8-5.6 12.4-12.4 12.4s-12.4-5.6-12.4-12.4c0-6.8 5.6-12.4 12.4-12.4z"/></symbol><symbol viewBox="0 0 512.001 512.001" id="study" xmlns="http://www.w3.org/2000/svg"><path d="M481.999 273.586v-47.58c0-8.284-6.716-15-15-15-30.988 0-59.878 2.615-87.173 7.955-15.911-15.365-35.308-26.513-56.313-32.606 22.904-19.277 37.486-48.14 37.486-80.349 0-58.449-47.103-106-105-106s-105 47.551-105 106c0 32.209 14.582 61.072 37.487 80.348-21.005 6.094-40.402 17.242-56.313 32.606-27.295-5.339-56.185-7.955-87.173-7.955-8.284 0-15 6.716-15 15v47.58c-17.459 6.192-30 22.865-30 42.42v30c0 19.555 12.541 36.228 30 42.42v47.58c0 8.284 6.716 15 15 15 78.429 0 142.832 18.583 202.68 58.481 5.015 3.342 11.621 3.35 16.641 0 59.848-39.898 124.25-58.481 202.68-58.481 8.284 0 15-6.716 15-15v-47.58c17.459-6.192 30-22.865 30-42.42v-30c-.002-19.554-12.543-36.227-30.002-42.419zm-301-167.58c0-41.907 33.645-76 75-76s75 34.093 75 76c0 41.355-33.645 75-75 75s-75-33.645-75-75zm-136 255c-8.271 0-15-6.729-15-15v-30c0-8.271 6.729-15 15-15s15 6.729 15 15v30c0 8.271-6.729 15-15 15zm196 109.085c-54.453-31.141-112.886-46.88-181-48.869v-32.796c17.459-6.192 30-22.865 30-42.42v-30c0-19.555-12.541-36.228-30-42.42v-32.368c70.481 2.023 127.134 18.62 181 52.916v175.957zm15-201.946c-27.686-17.469-56.504-30.77-87.268-40.117 16.904-10.986 36.803-17.022 57.268-17.022h60c20.465 0 40.364 6.036 57.268 17.022-30.764 9.347-59.583 22.648-87.268 40.117zm196 153.077c-68.113 1.989-126.548 17.732-181 48.871V294.146c53.867-34.299 110.516-50.906 181-52.928v32.368c-17.459 6.192-30 22.865-30 42.42v30c0 19.555 12.541 36.228 30 42.42v32.796zm30-75.216c0 8.271-6.729 15-15 15s-15-6.729-15-15v-30c0-8.271 6.729-15 15-15s15 6.729 15 15v30z"/></symbol><symbol viewBox="0 0 480 480" id="support" xmlns="http://www.w3.org/2000/svg"><path d="M160 0C93.726 0 40 53.726 40 120v88c.035 30.913 25.087 55.965 56 56h8v-16h-8c-22.08-.026-39.974-17.92-40-40v-88c0-57.438 46.562-104 104-104s104 46.562 104 104v88c-.026 22.08-17.92 39.974-40 40h-8v16h8c30.913-.035 55.965-25.087 56-56v-88C280 53.726 226.274 0 160 0zM65.928 377.032l5.848-9.208-13.512-8.576-5.848 9.216c-17.687 27.872-16.374 63.76 3.304 90.264V480h16v-24a7.999 7.999 0 0 0-1.752-5c-17.008-21.262-18.631-50.98-4.04-73.968zM440 0H336c-22.08.026-39.974 17.92-40 40v80c.026 22.08 17.92 39.974 40 40h16v32a8 8 0 0 0 13.656 5.656L403.312 160H440c22.08-.026 39.974-17.92 40-40V40c-.026-22.08-17.92-39.974-40-40zm24 120c0 13.255-10.745 24-24 24h-40a8 8 0 0 0-5.656 2.344L368 172.688V152a8 8 0 0 0-8-8h-24c-13.255 0-24-10.745-24-24V40c0-13.255 10.745-24 24-24h104c13.255 0 24 10.745 24 24v80z"/><path d="M336 40h56v16h-56zm72 0h32v16h-32zm-72 32h104v16H336zm0 32h56v16h-56zm-68.416 264.464l-5.848-9.216-13.512 8.576 5.848 9.216c14.592 22.985 12.969 52.701-4.04 73.96a7.999 7.999 0 0 0-1.752 5v24h16v-21.272c19.678-26.504 20.991-62.392 3.304-90.264z"/><path d="M472 272h-72c-30.016.035-54.666 23.729-55.888 53.72L320 369.128V336c-.035-30.913-25.087-55.965-56-56h-29.24l-.216-.168-.144.168H216c-8.837 0-16-7.163-16-16v-18.824A80.002 80.002 0 0 0 240 176v-64a80.165 80.165 0 0 0-9.6-37.968 8 8 0 0 0-10.4-3.44L84.592 134.304a8 8 0 0 0-4.592 7.24V176a80.002 80.002 0 0 0 40 69.176V264c0 8.837-7.163 16-16 16H56c-30.913.035-55.965 25.087-56 56v144h16V336c.026-22.08 17.92-39.974 40-40h25.456l72.04 100.656a8 8 0 0 0 6.4 3.344H160a8.002 8.002 0 0 0 6.4-3.2l76-100.8H264c22.08.026 39.974 17.92 40 40v64a8 8 0 0 0 14.992 3.88L356.704 336h45.864l-78 144h18.2L420.8 336h3.2c30.913-.035 55.965-25.087 56-56a8 8 0 0 0-8-8zM96 176v-29.376l123.528-58.128A64 64 0 0 1 224 112v64c0 35.346-28.654 64-64 64-35.346 0-64-28.654-64-64zm64.168 202.496L135.48 344h50.688l-26 34.496zM198.272 328H124l-22.904-32H104c17.673 0 32-14.327 32-32v-11.688a79.94 79.94 0 0 0 48 0V264c0 17.673 14.327 32 32 32h6.4l-24.128 32zM424 320h-63.2c3.825-18.613 20.198-31.979 39.2-32h63.2c-3.825 18.613-20.198 31.979-39.2 32z"/></symbol><symbol viewBox="0 0 512 512" id="test" xmlns="http://www.w3.org/2000/svg"><path d="M509.668 181.734a19.424 19.424 0 0 0-10.633-10.543l-34.156-13.976a19.432 19.432 0 0 0-14.973.066 19.455 19.455 0 0 0-10.547 10.633l-38.882 95.035V107.652a7.61 7.61 0 0 0-2.227-5.379L298.2 2.227A7.602 7.602 0 0 0 292.823 0H7.605A7.607 7.607 0 0 0 0 7.605V66.29a7.604 7.604 0 0 0 15.207 0V15.207h270.008v92.445c0 4.2 3.406 7.602 7.605 7.602h92.45V300.12l-33.524 81.926a7.56 7.56 0 0 0-.555 3.258l3.579 71.574a7.604 7.604 0 0 0 12.742 5.215l17.754-16.344v51.043H15.207V96.707a7.604 7.604 0 1 0-15.207 0v407.688A7.606 7.606 0 0 0 7.605 512h385.266c4.2 0 7.606-3.406 7.606-7.605V431.75l19.761-18.191a7.68 7.68 0 0 0 1.887-2.715l34.473-84.258a7.606 7.606 0 0 0-4.16-9.918 7.601 7.601 0 0 0-9.915 4.156l-31.597 77.223-42.227-17.277 64.887-158.582 42.226 17.277-22.386 54.715a7.603 7.603 0 0 0 4.16 9.918 7.6 7.6 0 0 0 9.914-4.157l42.238-103.23a19.442 19.442 0 0 0-.07-14.977zM300.426 25.957l74.09 74.094h-74.09zm66.55 370.535l34.16 13.977-31.988 29.449zM495.66 190.95l-14.09 34.438-42.226-17.278 14.09-34.437a4.332 4.332 0 0 1 2.351-2.363 4.315 4.315 0 0 1 3.336-.02l34.156 13.977a4.313 4.313 0 0 1 2.364 2.347 4.315 4.315 0 0 1 .02 3.336zm0 0"/><path d="M253.05 83.016h-94.284a7.604 7.604 0 1 0 0 15.207h94.285a7.604 7.604 0 1 0 0-15.207zM58.809 249.79h60.117a7.604 7.604 0 0 0 7.601-7.606v-53.852l11.348-14.445a7.604 7.604 0 0 0-11.957-9.395l-7.836 9.973H58.809a7.604 7.604 0 0 0-7.606 7.601v60.118a7.607 7.607 0 0 0 7.606 7.605zm7.601-60.118h39.723L94.03 205.074l-8.46-8.465a7.606 7.606 0 0 0-10.755 0 7.606 7.606 0 0 0 0 10.754l14.524 14.524a7.606 7.606 0 0 0 11.355-.68l10.625-13.52v26.895H66.41zm267.742-3.399H171.438a7.607 7.607 0 0 0-7.606 7.606c0 4.2 3.406 7.605 7.606 7.605h162.714a7.604 7.604 0 0 0 7.606-7.605c0-4.2-3.403-7.606-7.606-7.606zM171.438 237.98h130.78c4.2 0 7.602-3.406 7.602-7.605s-3.402-7.602-7.601-7.602H171.438a7.604 7.604 0 1 0 0 15.207zM51.203 342.043c0 4.2 3.406 7.605 7.606 7.605h60.117a7.603 7.603 0 0 0 7.601-7.605v-53.852l11.348-14.445a7.604 7.604 0 0 0-11.957-9.395l-7.836 9.973H58.809a7.604 7.604 0 0 0-7.606 7.602zm15.207-52.512h39.723L94.03 304.934l-8.46-8.465a7.606 7.606 0 0 0-10.755 0 7.606 7.606 0 0 0 0 10.754l14.524 14.523a7.606 7.606 0 0 0 11.355-.68l10.625-13.52v26.895H66.41zm267.742-3.398H171.438a7.604 7.604 0 0 0 0 15.207h162.714a7.604 7.604 0 0 0 0-15.207zM171.438 337.84h48.664c4.199 0 7.601-3.406 7.601-7.606s-3.402-7.601-7.601-7.601h-48.665a7.604 7.604 0 1 0 0 15.207zM51.203 441.902c0 4.2 3.406 7.606 7.606 7.606h60.117a7.603 7.603 0 0 0 7.601-7.606V381.79c0-4.2-3.402-7.605-7.601-7.605H58.809a7.607 7.607 0 0 0-7.606 7.605zm15.207-52.511h44.91v44.906H66.41zm275.348 4.207c0-4.2-3.403-7.606-7.606-7.606H171.438a7.604 7.604 0 0 0 0 15.207h162.714a7.601 7.601 0 0 0 7.606-7.601zm-170.32 28.89a7.607 7.607 0 0 0 0 15.211H309.82a7.606 7.606 0 0 0 0-15.211zm0 0"/></symbol><symbol viewBox="0 0 420.555 420.555" id="tools" xmlns="http://www.w3.org/2000/svg"><path d="M419.658 319.097a73.2 73.2 0 0 0-18.48-30.64 72.719 72.719 0 0 0-51.76-21.44 73.592 73.592 0 0 0-28.88 5.92l-72-72 95.6-94.88 22.64-.64a8 8 0 0 0 6.64-3.92l32.4-54.48a8 8 0 0 0-1.2-9.76l-28-28a8 8 0 0 0-9.76-1.2l-54.48 32.4a8 8 0 0 0-3.92 6.64l-.64 22.56-95.36 95.2-65.44-65.44c6.871-39.839-19.855-77.705-59.694-84.576a73.197 73.197 0 0 0-53.026 11.216 8 8 0 0 0 .56 13.6l36.32 20.24c8 4.56 9.6 18.16 3.12 29.68-6.48 11.52-18.88 17.44-26.96 12.96l-33.68-18.24a8 8 0 0 0-11.839 7.52c2.531 40.348 37.292 71.004 77.64 68.473a73.203 73.203 0 0 0 24.2-5.753l59.52 59.52-25.76 25.76-5.84-5.76c-6.465-6.187-16.655-6.187-23.12 0l-8 8c-6.095 5.934-6.481 15.599-.88 22l-94.64 94.48c-6.384 6.109-6.607 16.238-.498 22.622.162.17.328.336.498.498l27.04 27.04c6.109 6.384 16.238 6.607 22.622.498.17-.162.336-.328.498-.498l94.72-94.64c6.401 5.601 16.066 5.215 22-.88l8-8c6.384-6.109 6.607-16.238.498-22.622-.162-.17-.328-.336-.498-.498l-5.84-5.84 25.6-26.16 77.6 77.6c-6.704 39.868 20.18 77.621 60.048 84.325a73.199 73.199 0 0 0 64.432-20.965 8 8 0 0 0-3.6-12.96l-45.04-12.08a14.8 14.8 0 0 1-9.44-9.2 29.362 29.362 0 0 1-.8-18.88c3.36-12.56 14-21.52 22.96-19.12l44.56 12a7.516 7.516 0 0 0 2.16 0 7.999 7.999 0 0 0 7.199-11.68zm-98.48-240.56a7.998 7.998 0 0 0 2.32-5.44l.64-21.36 45.36-26.96 19.2 19.2-26.4 45.28-21.76.8c-2.043.05-3.99.88-5.44 2.32l-97.6 97.52-13.76-13.76 97.44-97.6zm-277.44 318.8l-27.44-27.28 95.12-94.88 13.76 13.76 13.12 13.6-94.56 94.8zm117.04-96l-10.56-10.64-4.08-4.08-33.6-33.84 8-8 48 48.64-7.76 7.92zm1.52-36.48l-13.76-13.76 25.76-25.76 13.76 13.76-25.76 25.76zm207.36 38.48a28.008 28.008 0 0 0-7.28-.96c-17.441 1.408-31.837 14.204-35.28 31.36a45.362 45.362 0 0 0 1.52 29.2 30.481 30.481 0 0 0 20.08 18.4l29.76 8c-27.138 16.171-62.247 7.281-78.418-19.856a57.202 57.202 0 0 1-6.542-42.384 8 8 0 0 0-2.16-7.44l-180.32-180.48a8 8 0 0 0-9.44-1.12 57.442 57.442 0 0 1-26.8 6.64c-24.069.021-45.568-15.048-53.76-37.68l18.24 10.16a28.24 28.24 0 0 0 13.92 3.6 41.759 41.759 0 0 0 34.8-22.72c10.88-19.44 6.64-42.56-9.36-51.52l-23.28-13.2c29.75-10.627 62.481 4.876 73.108 34.625a57.206 57.206 0 0 1 1.852 32.175 8 8 0 0 0 2.16 7.44l180.72 180.64a8 8 0 0 0 9.36 1.44 57.53 57.53 0 0 1 26.8-6.64 57.121 57.121 0 0 1 49.28 28.16l-28.96-7.84z"/></symbol><symbol viewBox="0 0 512 512" id="tools1" xmlns="http://www.w3.org/2000/svg"><path d="M506.944 81.321L470.66 45.037a7.5 7.5 0 0 0-10.608 10.607l16.106 16.106-172.731 172.731-57.704-57.704 21.821-21.82 15.215 15.215a7.502 7.502 0 0 0 10.608-10.607l-15.216-15.216 27.12-27.12 15.215 15.215a7.5 7.5 0 0 0 10.607 0 7.5 7.5 0 0 0 .001-10.607l-15.215-15.216 27.12-27.12 15.215 15.215a7.502 7.502 0 0 0 10.608-10.607l-15.216-15.216 27.12-27.12 15.215 15.215a7.502 7.502 0 0 0 10.608-10.607l-15.216-15.215 25.505-25.505c.553-.553 1.184-.669 1.615-.669s1.063.116 1.615.669l15.233 15.232a7.5 7.5 0 0 0 10.607 0 7.5 7.5 0 0 0-.001-10.607L430.674 5.055c-6.74-6.739-17.706-6.739-24.447 0l-171.11 171.114-93.29-93.29a7.929 7.929 0 0 0-2.492-1.651l-82.333-35.29C47.819 42 38.643 51.326 42.531 60.407l.001.001 21.254 49.585 14.036 32.745a7.935 7.935 0 0 0 1.651 2.492l93.291 93.291L5.068 406.219c-6.757 6.757-6.756 17.69-.001 24.446l76.267 76.266c6.754 6.756 17.69 6.758 24.447 0l167.698-167.696 145.603 145.603c4.265 4.264 9.951 6.612 16.01 6.612 6.059 0 11.745-2.348 16.01-6.612l30.333-30.333c8.827-8.828 8.827-23.191 0-32.019L335.831 276.882l171.114-171.114c6.74-6.741 6.74-17.708-.001-24.447zM73.208 93.9L60.242 63.646l30.254 12.968L73.208 93.9zm6.366 14.85l25.771-25.771 18.039 7.733c-30.896 30.896.666-.667-36.078 36.076l-7.732-18.038zm-7.816 367.395l-56.084-56.087a2.243 2.243 0 0 1-.67-1.616c0-.432.116-1.062.67-1.615l25.504-25.505 15.215 15.215a7.5 7.5 0 0 0 10.607 0 7.5 7.5 0 0 0 .001-10.607l-15.215-15.216 27.12-27.12 15.215 15.215a7.502 7.502 0 0 0 10.608-10.607l-15.216-15.216 27.12-27.12 15.215 15.215a7.502 7.502 0 0 0 10.608-10.607l-15.216-15.215 27.12-27.121 15.215 15.215a7.502 7.502 0 0 0 10.608-10.607l-15.216-15.216 18.402-18.402 57.704 57.704L71.758 476.145zm23.414 20.18a2.242 2.242 0 0 1-1.615.669 2.232 2.232 0 0 1-1.616-.67l-9.573-9.573L251.682 317.44l11.188 11.188L95.172 496.325zm375.654-63.232c2.978 2.979 2.978 7.826-.001 10.805l-30.333 30.333a7.58 7.58 0 0 1-5.401 2.219c-2.052 0-3.971-.788-5.401-2.219l-27.11-27.111 41.137-41.137 27.109 27.11zm-55.957-55.956l18.238 18.239-41.138 41.137-18.238-18.238 41.138-41.138zm-10.608-10.609l-15.265 15.266-96.541-96.542a7.502 7.502 0 0 0-10.608 10.607l96.542 96.542-15.265 15.265-267.74-267.739 15.265-15.265 146.447 146.447a7.502 7.502 0 0 0 10.608-10.607L121.257 114.054l15.265-15.265 267.739 267.739zM496.336 95.16L325.222 266.274l-11.187-11.187 172.731-172.73 9.571 9.571c.892.891.892 2.34-.001 3.232z"/></symbol><symbol viewBox="0 0 512 512" id="usa" xmlns="http://www.w3.org/2000/svg"><path d="M375.466 34.133c-42.828 0-80.038 20.148-107.609 58.264-4.563 6.308-8.498 12.617-11.857 18.608-3.358-5.992-7.293-12.299-11.857-18.608-27.572-38.116-64.783-58.264-107.611-58.264C55.781 34.133 0 105.324 0 187.733c0 129.605 131.249 228.963 248.284 288.289a17.067 17.067 0 0 0 15.434 0C380.731 416.706 512 317.28 512 187.733c0-83.082-56.364-153.6-136.534-153.6zm0 34.133c29.8 0 55.854 13.399 74.227 35.562H302.317c16.221-18.943 39.912-35.562 73.149-35.562zm-102.89 89.457c.602-1.982 3.183-10.036 8.265-20.57H468.91c3.919 10.317 6.638 21.511 7.983 33.348H272.576v-12.778zm-238.442 30.01c0-68.107 44.021-119.467 102.399-119.467 31.575 0 58.284 14.587 79.386 43.357 14.709 20.054 21.877 40.619 23.43 45.519v80.033H42.171c-5.34-16.51-8.037-33.022-8.037-49.442zM256 441.62c-23.49-12.189-45.238-24.79-65.202-37.771h130.403C301.238 416.828 279.49 429.431 256 441.62zm111.498-71.097H144.502c-13.583-10.893-25.993-22.022-37.207-33.348h297.41c-11.213 11.326-23.624 22.455-37.207 33.348zm66.304-66.674H78.198c-8.41-11.079-15.627-22.21-21.641-33.348h398.885c-6.013 11.138-13.231 22.269-21.64 33.348zm-161.226-66.674v-33.348h204.428c-1.179 11.093-3.577 22.224-7.175 33.348H272.576z"/><circle cx="178.119" cy="126.158" r="16.668"/><circle cx="111.445" cy="126.158" r="16.668"/><circle cx="128.114" cy="192.832" r="16.668"/><circle cx="194.788" cy="192.832" r="16.668"/></symbol><symbol viewBox="0 0 512 512" id="visit" xmlns="http://www.w3.org/2000/svg"><path d="M125.614 201.836c-33.182 0-60.178 26.995-60.178 60.178 0 33.183 26.996 60.178 60.178 60.178s60.178-26.995 60.178-60.178c0-33.183-26.995-60.178-60.178-60.178zm0 90.268c-16.592 0-30.091-13.498-30.091-30.091 0-16.592 13.498-30.091 30.091-30.091 16.592 0 30.091 13.498 30.091 30.091 0 16.593-13.498 30.091-30.091 30.091zM267.05 217.2h60.17v30.09h-60.17zm90.26 0h60.17v30.09h-60.17zm-90.26 60.18h60.17v30.09h-60.17zm90.26 0h60.17v30.09h-60.17zM267.05 98.23h60.17v30.09h-60.17zm90.26 0h60.17v30.09h-60.17zm-90.26 60.17h60.17v30.09h-60.17zm90.26 0h60.17v30.09h-60.17z"/><path d="M451.587 30.14V0H230.934v30.293h-61.18v114.374c-13.737-5.184-28.61-8.029-44.139-8.029C56.482 136.638.238 192.882.238 262.015c0 28.318 18.695 74.747 57.153 141.938 27.554 48.137 55.502 89.337 55.781 89.748L125.613 512l12.441-18.299c.224-.331 18.387-27.106 39.838-62.651H511.76V30.344h.001l-60.174-.204zM125.614 458.013c-34.842-53.693-95.289-155.3-95.289-195.999 0-52.543 42.746-95.289 95.289-95.289 52.544 0 95.29 42.746 95.29 95.289 0 40.699-60.446 142.306-95.29 195.999zm356.061-57.051H357.313v-62.186h-30.087v62.186H195.538c37.3-65.572 55.454-111.053 55.454-138.948 0-41.376-20.152-78.129-51.151-100.977V60.381h61.18V30.088h160.48v30.037l60.174.205v340.632z"/></symbol><symbol viewBox="0 0 548.358 548.358" id="vk" xmlns="http://www.w3.org/2000/svg"><path d="M545.451 400.298c-.664-1.431-1.283-2.618-1.858-3.569-9.514-17.135-27.695-38.167-54.532-63.102l-.567-.571-.284-.28-.287-.287h-.288c-12.18-11.611-19.893-19.418-23.123-23.415-5.91-7.614-7.234-15.321-4.004-23.13 2.282-5.9 10.854-18.36 25.696-37.397 7.807-10.089 13.99-18.175 18.556-24.267 32.931-43.78 47.208-71.756 42.828-83.939l-1.701-2.847c-1.143-1.714-4.093-3.282-8.846-4.712-4.764-1.427-10.853-1.663-18.278-.712l-82.224.568c-1.332-.472-3.234-.428-5.712.144l-3.713.859-1.431.715-1.136.859c-.952.568-1.999 1.567-3.142 2.995-1.137 1.423-2.088 3.093-2.848 4.996-8.952 23.031-19.13 44.444-30.553 64.238-7.043 11.803-13.511 22.032-19.418 30.693-5.899 8.658-10.848 15.037-14.842 19.126-4 4.093-7.61 7.372-10.852 9.849-3.237 2.478-5.708 3.525-7.419 3.142-1.715-.383-3.33-.763-4.859-1.143-2.663-1.714-4.805-4.045-6.42-6.995-1.622-2.95-2.714-6.663-3.285-11.136-.568-4.476-.904-8.326-1-11.563-.089-3.233-.048-7.806.145-13.706.198-5.903.287-9.897.287-11.991 0-7.234.141-15.085.424-23.555.288-8.47.521-15.181.716-20.125.194-4.949.284-10.185.284-15.705s-.336-9.849-1-12.991a44.442 44.442 0 0 0-2.99-9.137c-1.335-2.95-3.289-5.232-5.853-6.852-2.569-1.618-5.763-2.902-9.564-3.856-10.089-2.283-22.936-3.518-38.547-3.71-35.401-.38-58.148 1.906-68.236 6.855-3.997 2.091-7.614 4.948-10.848 8.562-3.427 4.189-3.905 6.475-1.431 6.851 11.422 1.711 19.508 5.804 24.267 12.275l1.715 3.429c1.334 2.474 2.666 6.854 3.999 13.134 1.331 6.28 2.19 13.227 2.568 20.837.95 13.897.95 25.793 0 35.689-.953 9.9-1.853 17.607-2.712 23.127-.859 5.52-2.143 9.993-3.855 13.418-1.715 3.426-2.856 5.52-3.428 6.28-.571.76-1.047 1.239-1.425 1.427a21.387 21.387 0 0 1-7.71 1.431c-2.667 0-5.901-1.334-9.707-4-3.805-2.666-7.754-6.328-11.847-10.992-4.093-4.665-8.709-11.184-13.85-19.558-5.137-8.374-10.467-18.271-15.987-29.691l-4.567-8.282c-2.855-5.328-6.755-13.086-11.704-23.267-4.952-10.185-9.329-20.037-13.134-29.554-1.521-3.997-3.806-7.04-6.851-9.134l-1.429-.859c-.95-.76-2.475-1.567-4.567-2.427a30.301 30.301 0 0 0-6.567-1.854l-78.229.568c-7.994 0-13.418 1.811-16.274 5.428l-1.143 1.711c-.571.953-.859 2.475-.859 4.57 0 2.094.571 4.664 1.714 7.707 11.42 26.84 23.839 52.725 37.257 77.659 13.418 24.934 25.078 45.019 34.973 60.237 9.897 15.229 19.985 29.602 30.264 43.112 10.279 13.515 17.083 22.176 20.412 25.981 3.333 3.812 5.951 6.662 7.854 8.565l7.139 6.851c4.568 4.569 11.276 10.041 20.127 16.416 8.853 6.379 18.654 12.659 29.408 18.85 10.756 6.181 23.269 11.225 37.546 15.126 14.275 3.905 28.169 5.472 41.684 4.716h32.834c6.659-.575 11.704-2.669 15.133-6.283l1.136-1.431c.764-1.136 1.479-2.901 2.139-5.276.668-2.379 1-5 1-7.851-.195-8.183.428-15.558 1.852-22.124 1.423-6.564 3.045-11.513 4.859-14.846 1.813-3.33 3.859-6.14 6.136-8.418 2.282-2.283 3.908-3.666 4.862-4.142.948-.479 1.705-.804 2.276-.999 4.568-1.522 9.944-.048 16.136 4.429 6.187 4.473 11.99 9.996 17.418 16.56 5.425 6.57 11.943 13.941 19.555 22.124 7.617 8.186 14.277 14.271 19.985 18.274l5.708 3.426c3.812 2.286 8.761 4.38 14.853 6.283 6.081 1.902 11.409 2.378 15.984 1.427l73.087-1.14c7.229 0 12.854-1.197 16.844-3.572 3.998-2.379 6.373-5 7.139-7.851.764-2.854.805-6.092.145-9.712-.677-3.611-1.344-6.136-2.008-7.563z"/></symbol><symbol viewBox="0 0 480 480" id="web" xmlns="http://www.w3.org/2000/svg"><path d="M392 0H88C65.92.026 48.026 17.92 48 40v216c.026 22.08 17.92 39.974 40 40h109.392l-11.424 40H160v16h160v-16h-25.968l-11.424-40H392c22.08-.026 39.974-17.92 40-40V40c-.026-22.08-17.92-39.974-40-40zM202.608 336l11.424-40h51.936l11.424 40h-74.784zM416 256c0 13.255-10.745 24-24 24H88c-13.255 0-24-10.745-24-24v-16h352v16zm0-32H64V40c0-13.255 10.745-24 24-24h304c13.255 0 24 10.745 24 24v184zM304 368H80a8 8 0 0 0-8 8v96a8 8 0 0 0 8 8h224a8 8 0 0 0 8-8v-96a8 8 0 0 0-8-8zm-8 96H88v-80h208v80z"/><path d="M104 432h16v16h-16zm0-32h16v16h-16zm32 0h16v16h-16zm32 0h16v16h-16zm64 0h16v16h-16zm-32 0h16v16h-16zm64 32h16v16h-16zm0-32h16v16h-16zm-128 32h112v16H136zm232-64c-22.091 0-40 17.909-40 40v32c0 22.091 17.909 40 40 40s40-17.909 40-40v-32c0-22.091-17.909-40-40-40zm24 72c0 13.255-10.745 24-24 24s-24-10.745-24-24v-32c0-13.255 10.745-24 24-24s24 10.745 24 24v32z"/><path d="M360 400h16v16h-16zM216.243 181.904l32.03-111.936 15.376 4.4-32.03 111.936zm-19.123-87.76l-10.24-12.288-48 40a8 8 0 0 0 0 12.288l48 40 10.24-12.288L156.496 128l40.624-33.856zm145.02 28.732a7.991 7.991 0 0 0-1.02-1.02l-48-40-10.24 12.288L323.504 128l-40.624 33.856 10.24 12.288 48-40a8 8 0 0 0 1.02-11.268z"/></symbol><symbol viewBox="0 0 479.982 479.982" id="woman" xmlns="http://www.w3.org/2000/svg"><path d="M451.991 103.982h-32a8 8 0 0 0-8 8v8a8 8 0 0 0-8-8h-24a8 8 0 0 0-8 7.472l-.552 8.528h-15.448v-16a8 8 0 0 0-8-8h-32a8 8 0 0 0-8 8v48a8 8 0 0 0 8 8h32a8 8 0 0 0 8-8v-16h14.4l-4.368 65.448c-.716 8.265-7.656 14.596-15.952 14.552h-50.08v-3.432a8.002 8.002 0 0 0-4.576-7.2 128.781 128.781 0 0 0-34.128-10.48 7.952 7.952 0 0 0-3.808.384 78.697 78.697 0 0 0-13.488-2.848v-21.824a66.676 66.676 0 0 0 6.88-4.056c26.88-18.808 49.12-37.696 49.12-78.344v-8.2a88.325 88.325 0 0 0-27.832-64.216c-31.185-28.994-78.562-31.77-112.92-6.616-34.748-6.252-67.986 16.849-74.238 51.598a63.932 63.932 0 0 0-1.01 11.234v120a8 8 0 0 0 8 8 118.57 118.57 0 0 0 82.128-32.856 66.931 66.931 0 0 0 5.872 3.456v21.824a78.676 78.676 0 0 0-13.496 2.816 7.944 7.944 0 0 0-3.8-.384 128.781 128.781 0 0 0-34.128 10.48 8.002 8.002 0 0 0-4.576 7.2v.264a189.753 189.753 0 0 0-48 123.2c0 21.944 1.048 47.2 7.544 64H67.991v-16a8 8 0 0 0-8-8h-32a8 8 0 0 0-8 8v48a8 8 0 0 0 8 8h32a8 8 0 0 0 8-8v-16h45.736a122.398 122.398 0 0 0-13.736 56h16a106.146 106.146 0 0 1 8-40.112v.112a8 8 0 0 0 8 8h32a8 8 0 0 0 8-8v-32h100.16l4.608 5.76a106.402 106.402 0 0 1 23.232 66.24h16a122.461 122.461 0 0 0-26.744-76.232l-6.12-7.648-3.072-9.216a99.839 99.839 0 0 1 2.008-68.552l.448-1.12a24.991 24.991 0 0 0 17.48-22.432v-.328l86.712-18.576c14.717-3.225 25.225-16.23 25.288-31.296v-84.6a8 8 0 0 0 8 8h32a8 8 0 0 0 8-8v-48a8 8 0 0 0-8-8zm-112 48h-16v-32h16v32zm-288 280h-16v-32h16v32zm61.992-27.376l.56 3.4h-13.28c-4.568-6.36-9.272-22.888-9.272-64.024a177.46 177.46 0 0 1 32-98.36v48.584c-10.552 23.904-14.056 86.096-10.008 110.4zm93.208-388.472c37.941-2.556 71.313 24.867 76.16 62.584l-43.784-21.896a7.936 7.936 0 0 0-4.968-.72l-92.944 16.4c6.575-31.454 33.453-54.572 65.536-56.368zm-107.2 175.544V79.982c.032-24.777 18.899-45.466 43.568-47.776a88.004 88.004 0 0 0-19.568 55.776v8.2c0 34.32 15.88 53.112 36.992 69.464a102.606 102.606 0 0 1-60.992 26.032zm40-95.496v-7.136l94.792-16.728 49.168 24.584c-.232 29.792-13.84 44.624-42.248 64.52-17.857 12.433-41.567 12.433-59.424 0-28.648-20.064-42.288-34.936-42.288-65.24zm32 121.968a60.956 60.956 0 0 1 16-2.168 8 8 0 0 0 8-8v-23.336a62.217 62.217 0 0 0 32 0v23.336a8 8 0 0 0 8 8c5.406.01 10.786.739 16 2.168v12.8l-40 8.6-40-8.6v-12.8zm-43.528 166.736a335.681 335.681 0 0 1 6.168-71.304 32.71 32.71 0 0 0 6.688 3.56 99.03 99.03 0 0 1 .984 66.84h-10.312a7.809 7.809 0 0 0-3.528.904zm27.528 47.096h-16v-32h16v32zm16-40a8 8 0 0 0-8-8h-4.8a115.015 115.015 0 0 0 0-64h105.28a115.891 115.891 0 0 0 .408 72h-92.888zm112-97.2c0 4.344-6.84 9.2-16 9.2h-112c-9.16 0-16-4.856-16-9.2v-69.024a110.961 110.961 0 0 1 16-5.224v16.904a8 8 0 0 0 6.32 7.824l48 10.328a7.866 7.866 0 0 0 3.36 0l48-10.328a8 8 0 0 0 6.32-7.824v-16.912a110.961 110.961 0 0 1 16 5.224v69.032zm99.352-34.552l-83.352 17.856v-38.104h50.08c16.645.051 30.531-12.706 31.888-29.296l5.52-82.704h8.512v116.6a16.08 16.08 0 0 1-12.648 15.648zm60.648-108.248h-16v-32h16v32z"/></symbol><symbol viewBox="0 0 480 480" id="work" xmlns="http://www.w3.org/2000/svg"><path d="M447.2 416.728A39.575 39.575 0 0 0 456 392v-16c0-22.091-17.909-40-40-40s-40 17.909-40 40v16a39.575 39.575 0 0 0 8.8 24.728 39.907 39.907 0 0 0-24.8 15.52 39.907 39.907 0 0 0-24.8-15.52A39.575 39.575 0 0 0 344 392v-16c0-22.091-17.909-40-40-40s-40 17.909-40 40v16a39.575 39.575 0 0 0 8.8 24.728 39.907 39.907 0 0 0-24.8 15.52 39.907 39.907 0 0 0-24.8-15.52A39.575 39.575 0 0 0 232 392v-16c0-22.091-17.909-40-40-40s-40 17.909-40 40v16a39.575 39.575 0 0 0 8.8 24.728c-18.971 3.471-32.764 19.986-32.8 39.272v24h16v-24c0-13.255 10.745-24 24-24h48c13.255 0 24 10.745 24 24v24h16v-24c0-13.255 10.745-24 24-24h48c13.255 0 24 10.745 24 24v24h16v-24c0-13.255 10.745-24 24-24h48c13.255 0 24 10.745 24 24v24h16v-24c-.036-19.286-13.829-35.801-32.8-39.272zM216 392c0 13.255-10.745 24-24 24s-24-10.745-24-24v-16c0-13.255 10.745-24 24-24s24 10.745 24 24v16zm112 0c0 13.255-10.745 24-24 24s-24-10.745-24-24v-16c0-13.255 10.745-24 24-24s24 10.745 24 24v16zm112 0c0 13.255-10.745 24-24 24s-24-10.745-24-24v-16c0-13.255 10.745-24 24-24s24 10.745 24 24v16zM194.926 160.558A7.986 7.986 0 0 0 192 160h-32a8.001 8.001 0 0 0-7.52 5.264l-8.48 23.32-.28-.76A42.4 42.4 0 0 0 104 160h-.208A39.583 39.583 0 0 0 112 136v-16c0-22.091-17.909-40-40-40s-40 17.909-40 40v16a39.583 39.583 0 0 0 8.208 24H40c-22.08.026-39.974 17.92-40 40v96a8 8 0 0 0 8 8h24v77.6l-14.656 21.96A8 8 0 0 0 24 416h96a8 8 0 0 0 6.656-12.44L112 381.6V233.888l2.016 4c8.084 16.157 27.734 22.702 43.891 14.618a32.716 32.716 0 0 0 15.733-17.098l12.992-32.472 12.8-32a8 8 0 0 0-4.506-10.378zM48 120c0-13.255 10.745-24 24-24s24 10.745 24 24v16c0 13.255-10.745 24-24 24s-24-10.745-24-24v-16zM32 288H16v-16h16v16zm48 112v-96H64v96H38.952l7.704-11.56A8.052 8.052 0 0 0 48 384v-96h48v96a8.052 8.052 0 0 0 1.344 4.44l7.704 11.56H80zm78.784-170.496c-3.434 8.567-13.163 12.729-21.73 9.295a16.708 16.708 0 0 1-8.726-8.031L111.2 196.424A8 8 0 0 0 96 200v72H48v-72a8 8 0 0 0-16 0v56H16v-56c0-13.255 10.745-24 24-24h24v80h16v-80h24a26.336 26.336 0 0 1 24.68 17.288l7.8 21.448a8 8 0 0 0 15.04 0l2.448-6.736h13.416l-8.6 21.504zm15-37.504h-14l5.816-16h14.584l-6.4 16z"/><path d="M472 48a8 8 0 0 0 8-8V8a8 8 0 0 0-8-8H136a8 8 0 0 0-8 8v32a8 8 0 0 0 8 8h8v96h16V48h288v176H192v16h104v35.36l-52 29.696 7.936 13.888L296 293.784V320h16v-26.216l44 25.16 7.936-13.888L312 275.36V240h168v-16h-16V48h8zM144 32V16h320v16H144z"/><path d="M393.944 88.24l-32-8-3.888 15.52 14.984 3.744-60.72 42.504L277 113.752a8 8 0 0 0-9.648-.256l-56 40 9.296 13.008 51.08-36.48L307 158.248a7.999 7.999 0 0 0 9.6.304l67.4-47.184V128h16V96a8.001 8.001 0 0 0-6.056-7.76z"/></symbol><symbol viewBox="0 0 512 512" id="youtube" xmlns="http://www.w3.org/2000/svg"><path d="M490.24 113.92c-13.888-24.704-28.96-29.248-59.648-30.976C399.936 80.864 322.848 80 256.064 80c-66.912 0-144.032.864-174.656 2.912-30.624 1.76-45.728 6.272-59.744 31.008C7.36 138.592 0 181.088 0 255.904v.256c0 74.496 7.36 117.312 21.664 141.728 14.016 24.704 29.088 29.184 59.712 31.264C112.032 430.944 189.152 432 256.064 432c66.784 0 143.872-1.056 174.56-2.816 30.688-2.08 45.76-6.56 59.648-31.264C504.704 373.504 512 330.688 512 256.192v-.256c0-74.848-7.296-117.344-21.76-142.016zM192 352V160l160 96-160 96z"/></symbol></svg>